<svg width="40" height="40" viewBox="0 0 40 40" fill="none" xmlns="http://www.w3.org/2000/svg">
<path id="Vector" d="M35.7143 0H4.28571C1.91964 0 0 1.91964 0 4.28571V35.7143C0 38.0804 1.91964 40 4.28571 40H35.7143C38.0804 40 40 38.0804 40 35.7143V4.28571C40 1.91964 38.0804 0 35.7143 0ZM14.6429 28.9286C9.70536 28.9286 5.71429 24.9375 5.71429 20C5.71429 15.0625 9.70536 11.0714 14.6429 11.0714C17.0536 11.0714 19.0625 11.9464 20.625 13.4107L18.2054 15.7411C17.5446 15.1071 16.3929 14.3661 14.6518 14.3661C11.6071 14.3661 9.125 16.8839 9.125 20.0089C9.125 23.125 11.6071 25.6518 14.6518 25.6518C18.1875 25.6518 19.5089 23.1071 19.7232 21.8036H14.6429V18.7321H23.0714C23.1607 19.1786 23.2143 19.6339 23.2143 20.2143C23.2143 25.3125 19.7946 28.9286 14.6429 28.9286ZM34.2857 21.625H31.6964V24.2143H29.0893V21.625H26.5V19.0179H29.0893V16.4286H31.6964V19.0179H34.2857V21.625Z" fill="white"/>
</svg>
