<svg width="41" height="40" viewBox="0 0 41 40" fill="none" xmlns="http://www.w3.org/2000/svg">
<path id="Vector" d="M20.1368 9.7445C14.4614 9.7445 9.88364 14.3233 9.88364 20C9.88364 25.6767 14.4614 30.2555 20.1368 30.2555C25.8123 30.2555 30.3901 25.6767 30.3901 20C30.3901 14.3233 25.8123 9.7445 20.1368 9.7445ZM20.1368 26.6674C16.4693 26.6674 13.4709 23.6773 13.4709 20C13.4709 16.3227 16.4603 13.3326 20.1368 13.3326C23.8134 13.3326 26.8028 16.3227 26.8028 20C26.8028 23.6773 23.8044 26.6674 20.1368 26.6674ZM33.201 9.325C33.201 10.6549 32.1302 11.7171 30.8095 11.7171C29.4798 11.7171 28.4179 10.646 28.4179 9.325C28.4179 8.00402 29.4888 6.93295 30.8095 6.93295C32.1302 6.93295 33.201 8.00402 33.201 9.325ZM39.9918 11.7528C39.8401 8.54848 39.1084 5.71014 36.7615 3.37164C34.4235 1.03314 31.5858 0.301238 28.3822 0.140578C25.0805 -0.0468593 15.1843 -0.0468593 11.8825 0.140578C8.68788 0.292313 5.85018 1.02421 3.50327 3.36271C1.15637 5.70122 0.433556 8.53955 0.272932 11.7438C0.0855364 15.0463 0.0855364 24.9448 0.272932 28.2472C0.424633 31.4515 1.15637 34.2899 3.50327 36.6284C5.85018 38.9669 8.67896 39.6988 11.8825 39.8594C15.1843 40.0469 25.0805 40.0469 28.3822 39.8594C31.5858 39.7077 34.4235 38.9758 36.7615 36.6284C39.0995 34.2899 39.8312 31.4515 39.9918 28.2472C40.1792 24.9448 40.1792 15.0552 39.9918 11.7528ZM35.7264 31.7907C35.0303 33.5401 33.6829 34.8879 31.9249 35.593C29.2925 36.6373 23.0459 36.3963 20.1368 36.3963C17.2278 36.3963 10.9723 36.6284 8.34878 35.593C6.59976 34.8968 5.2523 33.549 4.54733 31.7907C3.50327 29.1576 3.74421 22.9097 3.74421 20C3.74421 17.0903 3.5122 10.8334 4.54733 8.2093C5.24337 6.45989 6.59083 5.11213 8.34878 4.40701C10.9812 3.36271 17.2278 3.6037 20.1368 3.6037C23.0459 3.6037 29.3014 3.37164 31.9249 4.40701C33.6739 5.1032 35.0214 6.45096 35.7264 8.2093C36.7704 10.8424 36.5295 17.0903 36.5295 20C36.5295 22.9097 36.7704 29.1666 35.7264 31.7907Z" fill="white"/>
</svg>
