<svg width="57" height="40" viewBox="0 0 57 40" fill="none" xmlns="http://www.w3.org/2000/svg">
<path id="Vector" d="M55.7002 6.25865C55.0459 3.7951 53.1182 1.8549 50.6706 1.19646C46.2342 0 28.4445 0 28.4445 0C28.4445 0 10.6549 0 6.21833 1.19646C3.77073 1.855 1.84302 3.7951 1.18875 6.25865C0 10.724 0 20.0404 0 20.0404C0 20.0404 0 29.3569 1.18875 33.8222C1.84302 36.2857 3.77073 38.1451 6.21833 38.8035C10.6549 40 28.4445 40 28.4445 40C28.4445 40 46.2341 40 50.6706 38.8035C53.1182 38.1451 55.0459 36.2857 55.7002 33.8222C56.889 29.3569 56.889 20.0404 56.889 20.0404C56.889 20.0404 56.889 10.724 55.7002 6.25865ZM22.6262 28.4991V11.5818L37.4949 20.0406L22.6262 28.4991Z" fill="white"/>
</svg>
