<svg width="148" height="148" viewBox="0 0 148 148" fill="none" xmlns="http://www.w3.org/2000/svg">
<g id="Back-To 1">
<g id="Group">
<path id="Vector" d="M58.598 16.9657C37.6614 23.1023 22.8614 38.0226 16.9655 59.1999C13.837 70.5104 13.837 77.4893 16.9655 88.7999C22.9817 110.218 37.7817 125.018 59.1996 131.034C70.5102 134.162 77.4891 134.162 88.7996 131.034C110.218 125.018 125.018 110.218 131.034 88.7999C134.162 77.4893 134.162 70.5104 131.034 59.1999C125.018 37.5413 110.338 22.982 88.7996 16.9657C77.85 13.8373 69.3069 13.8373 58.598 16.9657ZM87.5964 41.1511C88.4387 41.9934 89.0403 43.4373 89.0403 44.3999C89.0403 45.3625 83.1443 52.1007 75.8045 59.5609C68.585 66.9007 62.5687 73.3983 62.5687 73.9999C62.5687 74.6015 68.585 81.0991 75.8045 88.4389C83.1443 95.8991 89.0403 102.637 89.0403 103.6C89.0403 106.127 86.5135 108.293 83.6256 108.293C80.4972 108.293 49.333 77.2487 49.333 73.9999C49.333 70.7511 80.4972 39.7072 83.6256 39.7072C85.0695 39.7072 86.7541 40.3088 87.5964 41.1511Z" fill="#A2A2A2"/>
</g>
</g>
</svg>
