<?xml version="1.0" encoding="UTF-8"?>
<!DOCTYPE svg PUBLIC "-//W3C//DTD SVG 1.1//EN" "http://www.w3.org/Graphics/SVG/1.1/DTD/svg11.dtd">
<!-- Creator: CorelDRAW X7 -->
<svg xmlns="http://www.w3.org/2000/svg" xml:space="preserve" width="4.511in" height="4.511in" version="1.1" style="shape-rendering:geometricPrecision; text-rendering:geometricPrecision; image-rendering:optimizeQuality; fill-rule:evenodd; clip-rule:evenodd"
viewBox="0 0 4511 4511"
 xmlns:xlink="http://www.w3.org/1999/xlink">
 <defs>
  <style type="text/css">
   <![CDATA[
    .str0 {stroke:#FEFEFE;stroke-width:20.8307}
    .fil1 {fill:none}
    .fil0 {fill:#727376}
   ]]>
  </style>
 </defs>
 <g id="Layer_x0020_1">
  <metadata id="CorelCorpID_0Corel-Layer"/>
  <g id="_351846880">
   <path class="fil0 str0" d="M3224 4281c1,159 -100,236 -303,230 -923,0 -1385,0 -1385,0 -274,-11 -375,-122 -302,-334 91,-245 11,-422 -240,-531 -274,-169 -323,-488 -145,-958 930,-1792 1395,-2688 1395,-2688 959,1806 1438,2708 1438,2708 158,507 96,830 -188,969 -260,112 -272,258 -270,604z"/>
   <path class="fil1 str0" d="M1609 3583c33,134 130,128 292,-20 270,-284 293,-589 93,-688 -199,-98 -257,31 -255,136 4,97 40,137 110,119 41,-18 40,1 52,-44 11,-44 3,-108 -73,-34 -7,7 -6,26 -13,-2 -8,-27 -11,-134 75,-128 86,6 119,111 78,250 -1,-17 0,0 6,52 26,106 6,172 -63,198 -86,20 -131,-13 -135,-99 12,-64 38,-84 79,-60 24,17 26,41 8,70 51,-4 59,-35 26,-91 -30,-20 -77,-34 -143,-41 -108,-81 -113,-193 -16,-338 3,-18 -11,-21 -44,-10 -249,62 -390,162 -422,301 -25,147 -5,232 60,256 136,35 204,-6 205,-122 -34,-72 -65,-83 -92,-35 -23,81 -60,89 -111,25 3,-96 46,-145 129,-147 -52,-68 -44,-129 26,-184 56,-35 100,-26 133,28 14,61 7,95 -21,103 -53,3 -65,-24 -36,-82 -52,-15 -76,5 -73,59 7,59 23,88 49,88 72,60 99,122 81,185 92,-36 143,-3 151,100 -4,62 -34,93 -91,91 -60,-11 -68,-42 -22,-91 28,-9 46,2 55,32 18,-44 7,-74 -33,-91 -56,7 -91,32 -105,75 -54,63 -108,86 -162,70 147,134 207,257 181,369 33,51 69,60 106,28 37,-18 43,-42 18,-72 -22,-21 -32,-19 -31,7 12,29 0,43 -35,40 -38,-23 -38,-56 1,-97 51,-37 92,-20 123,51 15,56 -4,98 -58,123 -64,24 -108,15 -133,-27 -23,65 -60,95 -111,90 -78,2 -119,-32 -124,-101 -9,-75 7,-124 49,-148 64,-18 93,6 85,73 -5,45 -28,64 -68,55 -2,52 27,68 90,48 42,-64 40,-138 -4,-223 -28,-57 -71,-114 -131,-172 10,95 -11,144 -61,149 -79,17 -130,0 -154,-51 -13,-61 4,-98 52,-113 59,12 73,40 43,84 -11,30 3,40 41,30 43,-21 37,-69 -17,-145 -52,-48 -80,-92 -85,-133 -18,-51 -24,-124 -18,-218 -104,52 -165,108 -183,167 0,68 25,99 73,93 44,-21 54,-42 30,-62 -33,6 -53,-3 -59,-28 5,-42 28,-57 68,-43 80,37 88,95 26,172 -66,59 -127,47 -184,-36 -25,-58 -23,-115 8,-172 -85,-34 -120,-88 -107,-161 10,-75 46,-107 108,-94 39,19 48,48 27,88 -21,26 -45,26 -74,0 -11,53 6,87 51,101 59,17 102,0 130,-51 61,-53 92,-79 92,-79 -133,7 -216,-36 -250,-129 -25,-66 -29,-136 -12,-208 41,-106 110,-150 205,-130 84,-8 129,-50 135,-128 -4,-41 -20,-62 -46,-62 15,56 -2,85 -51,87 -57,-25 -64,-71 -21,-138 70,-57 127,-35 171,66 31,123 -7,198 -116,225 44,84 46,145 7,183 -70,46 -117,39 -141,-20 -7,-73 22,-96 87,-70 7,-47 -13,-69 -59,-66 -85,20 -120,71 -105,153 -1,93 38,144 118,153 110,10 184,-9 224,-58 -101,-62 -114,-139 -38,-230 92,-17 133,14 124,94 -31,36 -53,30 -66,-18 -36,-26 -51,-12 -46,41 29,51 78,62 149,33 41,-9 66,-22 75,-39 -63,-25 -98,-60 -106,-105 -26,-72 -13,-145 37,-217 15,-60 0,-90 -46,-89 -25,18 -23,37 5,57 23,31 15,48 -22,52 -65,-35 -77,-87 -33,-157 89,-47 143,-18 160,87 2,13 3,20 3,20 85,-30 143,0 174,89 29,85 4,137 -74,158 -58,1 -87,-25 -87,-78 4,-62 34,-81 91,-55 6,-43 -19,-64 -73,-61 -63,19 -94,69 -91,149 29,73 83,106 160,100 88,14 147,11 176,-9 -33,-75 -29,-128 13,-159 77,-62 142,-61 194,2 22,74 3,110 -59,110 -29,18 -46,8 -52,-30 4,-31 24,-44 59,-37 -10,-41 -35,-49 -73,-25 -107,105 112,156 193,169 81,13 69,10 100,24 0,-136 1,-205 1,-205 -65,-37 -98,-81 -102,-131 -22,-111 13,-185 104,-222 -1,-73 -2,-109 -2,-109 -57,-110 -124,-168 -200,-176 -73,18 -97,57 -73,117 21,30 46,34 73,12 -7,-43 7,-64 40,-63 41,13 49,50 24,110 -68,68 -135,62 -203,-18 -47,-120 -10,-198 111,-234 -102,-79 -184,-91 -246,-35 -42,46 -42,83 0,111 34,18 50,11 50,-20 -39,-4 -49,-24 -29,-59 45,-23 71,-10 76,39 1,64 -16,98 -52,103 89,53 117,119 83,200 125,-7 179,56 162,189 -39,113 -104,127 -193,43 -30,-70 -11,-105 56,-104 41,12 53,37 36,76 63,-35 51,-78 -35,-130 -57,-12 -67,7 -140,52 -74,45 -180,13 -230,-21 -49,-34 -80,-47 -100,-109 -82,53 -141,43 -176,-29 29,-47 47,-92 72,-127 26,-4 39,12 38,47 -10,19 -25,27 -44,24 -13,35 -3,52 30,49 64,-26 78,-142 99,-259 20,-118 86,-126 144,-129 -65,-37 -85,-81 -59,-132 13,-28 32,-55 57,-83 29,2 40,14 35,37 -8,25 -19,34 -35,27 -30,41 -26,71 12,91 62,29 102,32 120,10 -74,-74 -94,-168 -61,-281 25,-112 94,-151 207,-118 121,76 154,159 99,250 -52,61 -107,75 -163,41 -53,-54 -51,-104 5,-147 56,-10 77,15 62,73 -3,19 -5,29 -5,29 65,-9 81,-47 47,-114 -58,-72 -108,-87 -151,-45 -84,168 -22,285 186,352 -13,-125 22,-194 106,-207 102,15 138,65 107,150 -53,54 -98,55 -135,3 0,-32 16,-46 49,-41 17,9 21,25 10,46 52,-17 54,-49 5,-95 -55,-15 -85,7 -90,64 -7,84 12,104 90,146 79,42 129,102 129,102 6,-335 4,-497 -7,-487 -17,-79 -47,-108 -92,-87 -44,20 -53,50 -28,88 38,-52 69,-48 92,11 12,60 -18,82 -92,66 -50,-18 -73,-55 -69,-111 6,-88 52,-127 137,-118 35,6 54,22 57,46"/>
   <path class="fil1 str0" d="M2164 1348c15,-86 -8,-160 -69,-224 -50,-87 -124,-105 -221,-53 -68,51 -82,109 -43,172 44,51 85,52 121,4 21,-39 21,-66 -1,-81 -20,43 -46,54 -69,9 -23,-46 -1,-77 55,-71 75,25 97,78 66,158 -40,75 -91,96 -156,64 -85,-57 -104,-138 -56,-241 33,-66 84,-96 154,-91 -58,-65 -72,-125 -40,-181 34,-84 90,-124 166,-93 76,30 97,93 66,163 -22,46 -57,63 -104,52 -36,-13 -53,-41 -50,-82 -8,-34 1,-52 28,-54 38,9 17,23 22,69 5,45 52,26 63,-27 -10,-66 -43,-87 -100,-65 -62,49 -72,104 -29,166 156,88 252,200 288,337 58,-168 140,-270 248,-306 66,-27 80,-81 45,-161 -43,-65 -83,-68 -121,-10 -23,31 -20,57 9,78 31,10 44,2 39,-26 -22,-26 -15,-45 22,-57 39,13 51,46 19,99 -31,53 -75,59 -115,19 -60,-64 -59,-169 23,-195 82,-26 96,-34 144,33 49,67 78,169 3,244 93,0 149,47 169,140 21,89 -6,151 -79,186 -81,30 -134,3 -158,-80 -20,-91 11,-137 94,-140 49,15 59,39 28,74 -25,34 -48,34 -71,0 -18,59 -2,94 46,107 98,-22 122,-81 73,-174 -76,-90 -156,-93 -242,-10 -59,69 -88,145 -86,228 113,-51 178,-28 193,69 9,97 -27,146 -108,148 -59,-19 -75,-52 -47,-100 22,-32 50,-27 82,13 32,-44 24,-73 -25,-88 -61,-5 -94,34 -97,118 -5,248 -5,399 1,452 101,-79 165,-102 198,-166 32,-65 20,-144 -35,-146 -50,-2 -70,15 -63,52 1,42 16,54 46,35 -12,-41 -2,-60 29,-56 40,23 34,55 -19,97 -79,11 -114,-19 -105,-92 9,-59 29,-90 60,-93 67,-20 116,4 146,74 12,30 14,69 4,117 120,-19 197,-77 232,-174 19,-81 6,-140 -38,-176 -78,-31 -134,-10 -171,61 -11,59 5,92 48,101 26,5 35,-4 27,-27 -32,-25 -30,-48 7,-71 54,-16 80,8 80,72 -3,57 -33,92 -90,106 -66,7 -109,-21 -130,-86 -22,-68 -7,-131 45,-192 57,-59 122,-72 194,-41 74,46 106,100 98,162 18,103 -5,181 -69,233 67,23 114,15 141,-25 16,-46 11,-73 -16,-81 -24,9 -35,-1 -34,-30 -2,-34 17,-44 69,-21 26,60 51,113 31,165 -17,25 -34,40 -50,46 107,63 161,150 163,261 7,79 30,122 69,130"/>
   <path class="fil0 str0" d="M1662 1998c37,-2 62,2 75,12 -107,-31 -160,-1 -157,89 4,70 26,99 68,86 53,-16 66,-50 39,-102 58,36 74,77 49,125 -31,54 -85,76 -161,68 -91,-16 -136,-70 -135,-163 23,22 48,31 74,28 40,-3 62,-17 66,-42 -1,-36 7,-62 23,-78 -13,-34 -31,-41 -54,-20 -18,16 -15,32 10,49 -2,30 -19,44 -50,42 -51,-27 -58,-79 -19,-155 46,-60 91,-98 134,-113 -17,78 -5,136 38,174z"/>
   <path class="fil1 str0" d="M3211 2175c30,-9 37,-28 20,-57 -25,2 -36,-10 -34,-37 9,-28 29,-35 60,-19 29,43 46,87 28,144 -52,52 -105,51 -157,-4 -32,97 -103,149 -213,157 -91,0 -149,-32 -205,-67 -56,-34 -104,-5 -121,51 -5,57 9,78 43,65 -13,-45 6,-67 57,-65 56,48 52,94 -12,139 -81,34 -133,9 -157,-75 -18,-128 38,-193 166,-194 -9,-114 25,-179 101,-197 83,-30 130,-5 141,74 7,62 -13,92 -58,90 -58,-5 -75,-37 -51,-97 -55,15 -75,56 -61,122 49,65 104,89 165,72 98,-21 146,-78 145,-173 -50,54 -96,58 -138,11 -22,-58 -22,-97 -2,-117 30,-9 40,3 32,38 -15,40 -6,61 28,62 47,-19 62,-53 45,-103 -26,-90 -75,-142 -149,-155 13,91 -2,141 -45,150 -52,29 -88,26 -110,-10 -27,-62 -17,-106 31,-132 56,11 63,35 21,75 -17,30 -18,64 26,40 45,-25 52,-87 6,-128 -58,-40 -126,-34 -206,20 -46,19 -66,10 -4,31 62,21 104,101 78,184 -17,147 -264,118 -208,-42 24,-28 44,-26 60,5 -10,52 6,69 46,52 46,-18 54,-47 25,-88 -24,-48 -60,-61 -107,-39 -99,64 -150,124 -152,178 -3,63 -5,94 -5,94 77,39 111,98 103,177 1,83 -31,141 -95,174 1,143 2,214 2,214 67,-32 146,-21 232,-39 86,-18 104,-83 76,-129 -16,-39 -41,-52 -73,-39 -22,18 -26,32 -11,43 31,-2 45,10 42,35 -10,31 -31,39 -65,25 -45,-31 -57,-71 -35,-119 21,-54 66,-68 135,-44 61,32 86,76 74,131 -10,43 -17,69 -23,79 92,28 171,29 236,4 75,-22 114,-61 118,-118 -20,-90 -59,-131 -118,-123 -34,5 -53,23 -58,54 70,-29 104,-7 101,67 -25,80 -73,91 -145,34 -39,-43 -38,-102 3,-175 37,-53 89,-67 155,-40 3,-81 38,-122 104,-123 54,-4 82,18 83,68 0,64 -21,103 -64,117 -39,-16 -38,-43 2,-82 9,-35 -1,-45 -29,-32 -38,20 -46,54 -24,100 57,65 68,134 33,206 -25,59 -63,93 -116,101 71,46 129,63 175,52 45,-12 61,-38 49,-78 0,-18 -10,-23 -30,-17 3,41 -8,57 -35,48 -37,-8 -45,-33 -23,-75 28,-67 75,-72 139,-14 22,48 22,97 0,147 -27,40 -53,57 -80,51 35,44 91,66 167,65 126,10 188,-39 186,-148 13,-88 -20,-141 -97,-160 -42,-1 -63,16 -64,52 74,-6 102,26 85,97 -57,57 -107,54 -153,-11 -30,-61 -23,-114 24,-160 -67,-23 -106,-57 -116,-103 -23,-86 -13,-150 30,-191 53,-43 100,-42 140,3 31,40 30,81 -2,125 -59,16 -84,-10 -75,-77 -47,6 -64,36 -50,91 35,73 97,104 185,92 57,4 100,30 130,78 43,61 55,126 38,197 -19,103 -62,161 -129,176 -53,19 -99,25 -138,17 80,88 140,132 179,133 74,-9 103,-42 88,-98 -42,30 -69,23 -82,-20 10,-82 51,-96 123,-43 34,51 35,106 4,166 -30,43 -59,61 -86,56 43,83 33,157 -30,220 -60,45 -117,34 -172,-31 -30,-72 -16,-123 44,-153 54,-5 77,14 68,57 -16,31 -36,37 -60,18 -7,52 13,72 60,60 55,-40 59,-91 13,-151 -76,-62 -124,-96 -143,-102 11,87 0,165 -32,235 -63,67 -112,145 -114,203 -2,57 24,61 47,47 -21,-59 -10,-96 31,-110 68,-20 94,12 78,97 -41,94 -111,109 -208,44 3,42 0,0 -11,-125 -104,113 -153,191 -148,233 -18,122 -2,178 48,168 45,4 66,-14 63,-55 -55,-1 -78,-26 -68,-76 7,-47 33,-65 79,-55 51,22 68,69 51,142 -9,68 -40,105 -94,110 -67,14 -113,-12 -139,-78 -67,39 -120,39 -159,0 -46,-47 -50,-97 -12,-151 27,-28 58,-35 94,-18 35,28 44,60 29,95 -22,26 -43,26 -61,0 -7,-17 -4,-33 10,-48 -33,-12 -48,4 -46,48 19,48 50,61 94,37 38,-16 51,-48 39,-97 35,-135 97,-271 172,-320 -108,-32 -174,-31 -181,-86 -45,-41 -75,-43 -95,-16 -20,27 -27,41 -13,55 28,-33 52,-35 70,-5 25,24 25,49 -2,75 -66,27 -109,5 -128,-66 -10,-81 20,-128 90,-142 27,-3 46,2 57,16 1,-83 28,-145 84,-184 47,-27 70,-72 53,-112 -17,-40 -45,-41 -68,-33 28,38 23,65 -14,81 -45,13 -61,-13 -48,-79 6,-57 34,-90 110,-59 77,32 101,108 47,189 74,16 113,52 119,108 12,61 -11,89 -68,82 -34,-12 -44,-42 -30,-88 -49,-23 -79,-7 -91,49 -16,94 -11,135 92,145 104,9 193,-35 193,-158 -6,-141 -66,-243 -180,-305 -88,-65 -189,-98 -303,-99 69,100 85,184 50,254 -31,81 -96,95 -167,99 -71,4 -80,54 -70,95 9,36 26,47 52,33 -33,-35 -32,-61 4,-77 53,-18 75,12 63,89 -20,68 -62,86 -125,56 -52,-21 -74,-76 -66,-165 7,-29 23,-48 46,-57 -46,-29 -63,-79 -51,-151 22,-105 113,-127 169,-70 56,57 6,82 -31,96 -26,8 -48,4 -65,-13 -3,68 1,86 69,86 67,0 134,-32 114,-127 -20,-96 -68,-111 -134,-132 -66,-21 -93,-25 -147,0 -54,25 -114,104 -130,178 -26,93 -13,177 40,250 105,183 206,296 304,339 76,22 136,23 178,1 -9,-45 3,-73 35,-83 51,10 59,48 25,116 -33,61 -89,84 -168,67 -51,-1 -82,-9 -95,-23 -171,-106 -285,-231 -343,-375 -55,56 -115,57 -181,5 -125,235 -249,365 -373,390 -125,21 -200,1 -223,-60 -33,-58 -28,-95 14,-112 27,6 38,16 36,27"/>
   <path class="fil1 str0" d="M1823 3729c0,332 1,499 1,503 -92,29 -149,13 -169,-49 -14,-42 7,-67 63,-76 27,12 31,27 10,45 -44,12 -48,30 -13,52 55,18 83,-6 86,-73 -16,-90 -67,-115 -154,-76 -76,68 -80,120 -10,198 53,47 117,68 245,60 191,-3 286,-5 286,-5 -2,-273 -2,-409 -2,-409 55,-65 114,-62 177,8 -2,264 -3,396 -3,396 318,0 428,25 477,0 48,-26 129,-132 78,-209 -51,-77 -131,-100 -175,-23 -44,77 -8,139 44,143 53,5 73,-10 63,-60 -14,-26 -34,35 -57,-5 -13,-70 56,-74 91,8 34,82 -78,95 -138,81 -61,-15 -42,2 -42,2 1,-347 1,-520 1,-520"/>
   <path class="fil1 str0" d="M2340 4303c3,36 5,54 5,54 461,0 692,-1 692,-1 77,-13 120,-49 129,-108 15,-214 23,-322 23,-322 26,-134 122,-238 289,-312 146,-101 219,-274 219,-521 -47,-271 -139,-513 -276,-726 -630,-1181 -993,-1862 -1091,-2042 -48,-96 -83,-149 -83,-149 -869,1653 -1303,2490 -1321,2506 -197,467 -133,796 193,987 170,109 239,256 208,440 -17,199 77,251 302,242 358,3 537,5 537,5 6,-36 6,-52 -1,-48"/>
   <ellipse class="fil0 str0" cx="2249" cy="2411" rx="138" ry="130"/>
  </g>
 </g>
</svg>
