<svg width="188" height="206" viewBox="0 0 188 206" fill="none" xmlns="http://www.w3.org/2000/svg">
<path fill-rule="evenodd" clip-rule="evenodd" d="M14.4862 82.1707C14.8877 79.9984 13.4521 77.9118 11.2798 77.5104C9.10742 77.1089 7.02091 78.5444 6.61942 80.7168L0.413701 114.294C-0.171898 117.463 1.84974 120.528 4.9929 121.238L38.3015 128.755C40.4564 129.241 42.5976 127.889 43.0839 125.734C43.5703 123.579 42.2176 121.438 40.0626 120.951L8.62997 113.857L14.4862 82.1707ZM43.704 62.901C44.1055 60.7287 42.6699 58.6422 40.4976 58.2407C38.3252 57.8392 36.2387 59.2748 35.8372 61.4471L29.6315 95.0248C29.0459 98.1933 31.0675 101.259 34.2107 101.968L67.5193 109.485C69.6742 109.972 71.8154 108.619 72.3017 106.464C72.7881 104.309 71.4354 102.168 69.2804 101.681L37.8478 94.5876L43.704 62.901ZM69.7153 38.971C71.8877 39.3725 73.3233 41.459 72.9218 43.6313L67.0656 75.3179L98.4982 82.4118C100.653 82.8981 102.006 85.0393 101.52 87.1943C101.033 89.3492 98.892 90.7019 96.7371 90.2155L63.4285 82.6983C60.2853 81.9889 58.2637 78.9236 58.8493 75.7551L65.055 42.1774C65.4565 40.0051 67.543 38.5695 69.7153 38.971ZM102.14 24.3616C102.541 22.1893 101.105 20.1028 98.9331 19.7013C96.7608 19.2998 94.6743 20.7354 94.2728 22.9077L88.0671 56.4854C87.4815 59.6539 89.5031 62.7193 92.6463 63.4286L125.955 70.9458C128.11 71.4322 130.251 70.0795 130.737 67.9246C131.224 65.7696 129.871 63.6284 127.716 63.1421L96.2833 56.0482L102.14 24.3616ZM128.151 0.431612C130.323 0.833098 131.759 2.9196 131.357 5.09195L125.501 36.7786L156.934 43.8724C159.089 44.3588 160.441 46.4999 159.955 48.6549C159.469 50.8098 157.328 52.1625 155.173 51.6761L121.864 44.1589C118.721 43.4496 116.699 40.3842 117.285 37.2157L123.491 3.63804C123.892 1.46569 125.979 0.0301258 128.151 0.431612ZM173.74 123.829C173.338 126.001 174.774 128.088 176.946 128.489C179.118 128.891 181.205 127.455 181.606 125.283L187.812 91.7054C188.398 88.5368 186.376 85.4715 183.233 84.7621L149.924 77.2449C147.769 76.7586 145.628 78.1112 145.142 80.2662C144.655 82.4211 146.008 84.5623 148.163 85.0486L179.596 92.1425L173.74 123.829ZM144.522 143.099C144.12 145.271 145.556 147.358 147.728 147.759C149.9 148.161 151.987 146.725 152.388 144.553L158.594 110.975C159.18 107.807 157.158 104.741 154.015 104.032L120.706 96.5146C118.551 96.0283 116.41 97.3809 115.924 99.5359C115.438 101.691 116.79 103.832 118.945 104.318L150.378 111.412L144.522 143.099ZM118.51 167.029C116.338 166.627 114.902 164.541 115.304 162.368L121.16 130.682L89.7275 123.588C87.5725 123.102 86.2199 120.961 86.7062 118.806C87.1925 116.651 89.3337 115.298 91.4886 115.784L124.797 123.302C127.94 124.011 129.962 127.076 129.376 130.245L123.171 163.822C122.769 165.995 120.683 167.43 118.51 167.029ZM86.0861 181.638C85.6847 183.811 87.1202 185.897 89.2926 186.299C91.4649 186.7 93.5514 185.264 93.9529 183.092L100.159 149.514C100.744 146.346 98.7226 143.281 95.5794 142.571L62.2709 135.054C60.1159 134.568 57.9748 135.92 57.4884 138.075C57.0021 140.23 58.3547 142.371 60.5097 142.858L91.9424 149.952L86.0861 181.638ZM60.0748 205.568C57.9024 205.167 56.4669 203.08 56.8684 200.908L62.7246 169.221L31.2919 162.127C29.137 161.641 27.7843 159.5 28.2706 157.345C28.757 155.19 30.8981 153.837 33.0531 154.324L66.3617 161.841C69.5048 162.55 71.5264 165.616 70.9409 168.784L64.7351 202.362C64.3336 204.534 62.2471 205.97 60.0748 205.568Z" fill="white"/>
</svg>
