<svg width="244" height="222" viewBox="0 0 244 222" fill="none" xmlns="http://www.w3.org/2000/svg">
<path fill-rule="evenodd" clip-rule="evenodd" d="M244 20C244 31.0457 235.046 40 224 40C212.954 40 204 31.0457 204 20C204 8.9543 212.954 0 224 0C235.046 0 244 8.9543 244 20ZM75 140C99.8528 140 120 119.853 120 95C120 70.1472 99.8528 50 75 50C50.1472 50 30 70.1472 30 95C30 119.853 50.1472 140 75 140ZM75 170C116.421 170 150 136.421 150 95C150 53.5786 116.421 20 75 20C33.5786 20 0 53.5786 0 95C0 136.421 33.5786 170 75 170ZM239 192C239 205.807 227.807 217 214 217C200.193 217 189 205.807 189 192C189 178.193 200.193 167 214 167C227.807 167 239 178.193 239 192ZM244 192C244 208.569 230.569 222 214 222C197.431 222 184 208.569 184 192C184 175.431 197.431 162 214 162C230.569 162 244 175.431 244 192Z" fill="white"/>
</svg>
