<svg width="172" height="212" viewBox="0 0 172 212" fill="none" xmlns="http://www.w3.org/2000/svg">
<path d="M161.287 69.7703C162.118 71.2093 162.927 72.6623 163.714 74.129C162.285 73.1942 161.33 71.5951 161.287 69.7703Z" fill="white"/>
<path d="M131.954 32.7852C134.451 35.1279 136.872 37.5494 139.215 40.0457C138.309 41.72 136.537 42.8571 134.5 42.8571C131.541 42.8571 129.143 40.4587 129.143 37.5C129.143 35.4628 130.28 33.6911 131.954 32.7852Z" fill="white"/>
<path d="M97.871 8.28625C99.3377 9.07314 100.791 9.88214 102.23 10.7128C100.405 10.6702 98.8058 9.71517 97.871 8.28625Z" fill="white"/>
<path d="M-58.2297 10.7128C-56.7907 9.88214 -55.3377 9.07314 -53.871 8.28625C-54.8058 9.71517 -56.4049 10.6702 -58.2297 10.7128Z" fill="white"/>
<path d="M-95.2148 40.0457C-92.8721 37.5494 -90.4506 35.1279 -87.9543 32.7852C-86.28 33.6911 -85.1429 35.4628 -85.1429 37.5C-85.1429 40.4587 -87.5413 42.8571 -90.5 42.8571C-92.5372 42.8571 -94.3089 41.72 -95.2148 40.0457Z" fill="white"/>
<path d="M-119.714 74.129C-118.927 72.6623 -118.118 71.2093 -117.287 69.7703C-117.33 71.5951 -118.285 73.1942 -119.714 74.129Z" fill="white"/>
<path d="M163.714 225.871C162.927 227.338 162.118 228.791 161.287 230.23C161.33 228.405 162.285 226.806 163.714 225.871Z" fill="white"/>
<path d="M139.215 259.954C138.309 258.28 136.537 257.143 134.5 257.143C131.541 257.143 129.143 259.541 129.143 262.5C129.143 264.537 130.28 266.309 131.954 267.215C134.451 264.872 136.872 262.451 139.215 259.954Z" fill="white"/>
<path d="M102.23 289.287C100.405 289.33 98.8058 290.285 97.871 291.714C99.3377 290.927 100.791 290.118 102.23 289.287Z" fill="white"/>
<path d="M-53.871 291.714C-54.8058 290.285 -56.4049 289.33 -58.2297 289.287C-56.7907 290.118 -55.3377 290.927 -53.871 291.714Z" fill="white"/>
<path d="M-87.9543 267.215C-86.28 266.309 -85.1429 264.537 -85.1429 262.5C-85.1429 259.541 -87.5413 257.143 -90.5 257.143C-92.5372 257.143 -94.3089 258.28 -95.2148 259.954C-92.8721 262.451 -90.4506 264.872 -87.9543 267.215Z" fill="white"/>
<path d="M-117.287 230.23C-117.33 228.405 -118.285 226.806 -119.714 225.871C-118.927 227.338 -118.118 228.791 -117.287 230.23Z" fill="white"/>
<path d="M-20.8571 5.35714C-20.8571 8.31581 -23.2556 10.7143 -26.2143 10.7143C-29.173 10.7143 -31.5714 8.31581 -31.5714 5.35714C-31.5714 2.39847 -29.173 0 -26.2143 0C-23.2556 0 -20.8571 2.39847 -20.8571 5.35714Z" fill="white"/>
<path d="M11.2857 5.35714C11.2857 8.31581 8.88724 10.7143 5.92857 10.7143C2.96991 10.7143 0.571426 8.31581 0.571426 5.35714C0.571426 2.39847 2.96991 0 5.92857 0C8.88724 0 11.2857 2.39847 11.2857 5.35714Z" fill="white"/>
<path d="M43.4286 5.35714C43.4286 8.31581 41.0301 10.7143 38.0714 10.7143C35.1128 10.7143 32.7143 8.31581 32.7143 5.35714C32.7143 2.39847 35.1128 0 38.0714 0C41.0301 0 43.4286 2.39847 43.4286 5.35714Z" fill="white"/>
<path d="M75.5714 5.35714C75.5714 8.31581 73.173 10.7143 70.2143 10.7143C67.2556 10.7143 64.8571 8.31581 64.8571 5.35714C64.8571 2.39847 67.2556 0 70.2143 0C73.173 0 75.5714 2.39847 75.5714 5.35714Z" fill="white"/>
<path d="M-53 37.5C-53 40.4587 -55.3985 42.8571 -58.3571 42.8571C-61.3158 42.8571 -63.7143 40.4587 -63.7143 37.5C-63.7143 34.5413 -61.3158 32.1429 -58.3571 32.1429C-55.3985 32.1429 -53 34.5413 -53 37.5Z" fill="white"/>
<path d="M-20.8571 37.5C-20.8571 40.4587 -23.2556 42.8571 -26.2143 42.8571C-29.173 42.8571 -31.5714 40.4587 -31.5714 37.5C-31.5714 34.5413 -29.173 32.1429 -26.2143 32.1429C-23.2556 32.1429 -20.8571 34.5413 -20.8571 37.5Z" fill="white"/>
<path d="M11.2857 37.5C11.2857 40.4587 8.88724 42.8571 5.92857 42.8571C2.96991 42.8571 0.571426 40.4587 0.571426 37.5C0.571426 34.5413 2.96991 32.1429 5.92857 32.1429C8.88724 32.1429 11.2857 34.5413 11.2857 37.5Z" fill="white"/>
<path d="M43.4286 37.5C43.4286 40.4587 41.0301 42.8571 38.0714 42.8571C35.1128 42.8571 32.7143 40.4587 32.7143 37.5C32.7143 34.5413 35.1128 32.1429 38.0714 32.1429C41.0301 32.1429 43.4286 34.5413 43.4286 37.5Z" fill="white"/>
<path d="M75.5714 37.5C75.5714 40.4587 73.173 42.8571 70.2143 42.8571C67.2556 42.8571 64.8571 40.4587 64.8571 37.5C64.8571 34.5413 67.2556 32.1429 70.2143 32.1429C73.173 32.1429 75.5714 34.5413 75.5714 37.5Z" fill="white"/>
<path d="M107.714 37.5C107.714 40.4587 105.316 42.8571 102.357 42.8571C99.3985 42.8571 97 40.4587 97 37.5C97 34.5413 99.3985 32.1429 102.357 32.1429C105.316 32.1429 107.714 34.5413 107.714 37.5Z" fill="white"/>
<path d="M-85.1429 69.6429C-85.1429 72.6015 -87.5413 75 -90.5 75C-93.4587 75 -95.8571 72.6015 -95.8571 69.6429C-95.8571 66.6842 -93.4587 64.2857 -90.5 64.2857C-87.5413 64.2857 -85.1429 66.6842 -85.1429 69.6429Z" fill="white"/>
<path d="M-53 69.6429C-53 72.6015 -55.3985 75 -58.3571 75C-61.3158 75 -63.7143 72.6015 -63.7143 69.6429C-63.7143 66.6842 -61.3158 64.2857 -58.3571 64.2857C-55.3985 64.2857 -53 66.6842 -53 69.6429Z" fill="white"/>
<path d="M-20.8571 69.6429C-20.8571 72.6015 -23.2556 75 -26.2143 75C-29.173 75 -31.5714 72.6015 -31.5714 69.6429C-31.5714 66.6842 -29.173 64.2857 -26.2143 64.2857C-23.2556 64.2857 -20.8571 66.6842 -20.8571 69.6429Z" fill="white"/>
<path d="M11.2857 69.6429C11.2857 72.6015 8.88724 75 5.92857 75C2.96991 75 0.571426 72.6015 0.571426 69.6429C0.571426 66.6842 2.96991 64.2857 5.92857 64.2857C8.88724 64.2857 11.2857 66.6842 11.2857 69.6429Z" fill="white"/>
<path d="M43.4286 69.6429C43.4286 72.6015 41.0301 75 38.0714 75C35.1128 75 32.7143 72.6015 32.7143 69.6429C32.7143 66.6842 35.1128 64.2857 38.0714 64.2857C41.0301 64.2857 43.4286 66.6842 43.4286 69.6429Z" fill="white"/>
<path d="M75.5714 69.6429C75.5714 72.6015 73.173 75 70.2143 75C67.2556 75 64.8571 72.6015 64.8571 69.6429C64.8571 66.6842 67.2556 64.2857 70.2143 64.2857C73.173 64.2857 75.5714 66.6842 75.5714 69.6429Z" fill="white"/>
<path d="M107.714 69.6429C107.714 72.6015 105.316 75 102.357 75C99.3985 75 97 72.6015 97 69.6429C97 66.6842 99.3985 64.2857 102.357 64.2857C105.316 64.2857 107.714 66.6842 107.714 69.6429Z" fill="white"/>
<path d="M139.857 69.6429C139.857 72.6015 137.459 75 134.5 75C131.541 75 129.143 72.6015 129.143 69.6429C129.143 66.6842 131.541 64.2857 134.5 64.2857C137.459 64.2857 139.857 66.6842 139.857 69.6429Z" fill="white"/>
<path d="M-117.286 101.786C-117.286 104.744 -119.684 107.143 -122.643 107.143C-125.602 107.143 -128 104.744 -128 101.786C-128 98.827 -125.602 96.4286 -122.643 96.4286C-119.684 96.4286 -117.286 98.827 -117.286 101.786Z" fill="white"/>
<path d="M-85.1429 101.786C-85.1429 104.744 -87.5413 107.143 -90.5 107.143C-93.4587 107.143 -95.8571 104.744 -95.8571 101.786C-95.8571 98.827 -93.4587 96.4286 -90.5 96.4286C-87.5413 96.4286 -85.1429 98.827 -85.1429 101.786Z" fill="white"/>
<path d="M-53 101.786C-53 104.744 -55.3985 107.143 -58.3571 107.143C-61.3158 107.143 -63.7143 104.744 -63.7143 101.786C-63.7143 98.827 -61.3158 96.4286 -58.3571 96.4286C-55.3985 96.4286 -53 98.827 -53 101.786Z" fill="white"/>
<path d="M-20.8571 101.786C-20.8571 104.744 -23.2556 107.143 -26.2143 107.143C-29.173 107.143 -31.5714 104.744 -31.5714 101.786C-31.5714 98.827 -29.173 96.4286 -26.2143 96.4286C-23.2556 96.4286 -20.8571 98.827 -20.8571 101.786Z" fill="white"/>
<path d="M11.2857 101.786C11.2857 104.744 8.88724 107.143 5.92857 107.143C2.96991 107.143 0.571426 104.744 0.571426 101.786C0.571426 98.827 2.96991 96.4286 5.92857 96.4286C8.88724 96.4286 11.2857 98.827 11.2857 101.786Z" fill="white"/>
<path d="M43.4286 101.786C43.4286 104.744 41.0301 107.143 38.0714 107.143C35.1128 107.143 32.7143 104.744 32.7143 101.786C32.7143 98.827 35.1128 96.4286 38.0714 96.4286C41.0301 96.4286 43.4286 98.827 43.4286 101.786Z" fill="white"/>
<path d="M75.5714 101.786C75.5714 104.744 73.173 107.143 70.2143 107.143C67.2556 107.143 64.8571 104.744 64.8571 101.786C64.8571 98.827 67.2556 96.4286 70.2143 96.4286C73.173 96.4286 75.5714 98.827 75.5714 101.786Z" fill="white"/>
<path d="M107.714 101.786C107.714 104.744 105.316 107.143 102.357 107.143C99.3985 107.143 97 104.744 97 101.786C97 98.827 99.3985 96.4286 102.357 96.4286C105.316 96.4286 107.714 98.827 107.714 101.786Z" fill="white"/>
<path d="M139.857 101.786C139.857 104.744 137.459 107.143 134.5 107.143C131.541 107.143 129.143 104.744 129.143 101.786C129.143 98.827 131.541 96.4286 134.5 96.4286C137.459 96.4286 139.857 98.827 139.857 101.786Z" fill="white"/>
<path d="M172 101.786C172 104.744 169.602 107.143 166.643 107.143C163.684 107.143 161.286 104.744 161.286 101.786C161.286 98.827 163.684 96.4286 166.643 96.4286C169.602 96.4286 172 98.827 172 101.786Z" fill="white"/>
<path d="M-117.286 133.929C-117.286 136.887 -119.684 139.286 -122.643 139.286C-125.602 139.286 -128 136.887 -128 133.929C-128 130.97 -125.602 128.571 -122.643 128.571C-119.684 128.571 -117.286 130.97 -117.286 133.929Z" fill="white"/>
<path d="M-85.1429 133.929C-85.1429 136.887 -87.5413 139.286 -90.5 139.286C-93.4587 139.286 -95.8571 136.887 -95.8571 133.929C-95.8571 130.97 -93.4587 128.571 -90.5 128.571C-87.5413 128.571 -85.1429 130.97 -85.1429 133.929Z" fill="white"/>
<path d="M-53 133.929C-53 136.887 -55.3985 139.286 -58.3571 139.286C-61.3158 139.286 -63.7143 136.887 -63.7143 133.929C-63.7143 130.97 -61.3158 128.571 -58.3571 128.571C-55.3985 128.571 -53 130.97 -53 133.929Z" fill="white"/>
<path d="M-20.8571 133.929C-20.8571 136.887 -23.2556 139.286 -26.2143 139.286C-29.173 139.286 -31.5714 136.887 -31.5714 133.929C-31.5714 130.97 -29.173 128.571 -26.2143 128.571C-23.2556 128.571 -20.8571 130.97 -20.8571 133.929Z" fill="white"/>
<path d="M11.2857 133.929C11.2857 136.887 8.88724 139.286 5.92857 139.286C2.96991 139.286 0.571426 136.887 0.571426 133.929C0.571426 130.97 2.96991 128.571 5.92857 128.571C8.88724 128.571 11.2857 130.97 11.2857 133.929Z" fill="white"/>
<path d="M43.4286 133.929C43.4286 136.887 41.0301 139.286 38.0714 139.286C35.1128 139.286 32.7143 136.887 32.7143 133.929C32.7143 130.97 35.1128 128.571 38.0714 128.571C41.0301 128.571 43.4286 130.97 43.4286 133.929Z" fill="white"/>
<path d="M75.5714 133.929C75.5714 136.887 73.173 139.286 70.2143 139.286C67.2556 139.286 64.8571 136.887 64.8571 133.929C64.8571 130.97 67.2556 128.571 70.2143 128.571C73.173 128.571 75.5714 130.97 75.5714 133.929Z" fill="white"/>
<path d="M107.714 133.929C107.714 136.887 105.316 139.286 102.357 139.286C99.3985 139.286 97 136.887 97 133.929C97 130.97 99.3985 128.571 102.357 128.571C105.316 128.571 107.714 130.97 107.714 133.929Z" fill="white"/>
<path d="M139.857 133.929C139.857 136.887 137.459 139.286 134.5 139.286C131.541 139.286 129.143 136.887 129.143 133.929C129.143 130.97 131.541 128.571 134.5 128.571C137.459 128.571 139.857 130.97 139.857 133.929Z" fill="white"/>
<path d="M172 133.929C172 136.887 169.602 139.286 166.643 139.286C163.684 139.286 161.286 136.887 161.286 133.929C161.286 130.97 163.684 128.571 166.643 128.571C169.602 128.571 172 130.97 172 133.929Z" fill="white"/>
<path d="M-117.286 166.071C-117.286 169.03 -119.684 171.429 -122.643 171.429C-125.602 171.429 -128 169.03 -128 166.071C-128 163.113 -125.602 160.714 -122.643 160.714C-119.684 160.714 -117.286 163.113 -117.286 166.071Z" fill="white"/>
<path d="M-85.1429 166.071C-85.1429 169.03 -87.5413 171.429 -90.5 171.429C-93.4587 171.429 -95.8571 169.03 -95.8571 166.071C-95.8571 163.113 -93.4587 160.714 -90.5 160.714C-87.5413 160.714 -85.1429 163.113 -85.1429 166.071Z" fill="white"/>
<path d="M-53 166.071C-53 169.03 -55.3985 171.429 -58.3571 171.429C-61.3158 171.429 -63.7143 169.03 -63.7143 166.071C-63.7143 163.113 -61.3158 160.714 -58.3571 160.714C-55.3985 160.714 -53 163.113 -53 166.071Z" fill="white"/>
<path d="M-20.8571 166.071C-20.8571 169.03 -23.2556 171.429 -26.2143 171.429C-29.173 171.429 -31.5714 169.03 -31.5714 166.071C-31.5714 163.113 -29.173 160.714 -26.2143 160.714C-23.2556 160.714 -20.8571 163.113 -20.8571 166.071Z" fill="white"/>
<path d="M11.2857 166.071C11.2857 169.03 8.88724 171.429 5.92857 171.429C2.96991 171.429 0.571426 169.03 0.571426 166.071C0.571426 163.113 2.96991 160.714 5.92857 160.714C8.88724 160.714 11.2857 163.113 11.2857 166.071Z" fill="white"/>
<path d="M43.4286 166.071C43.4286 169.03 41.0301 171.429 38.0714 171.429C35.1128 171.429 32.7143 169.03 32.7143 166.071C32.7143 163.113 35.1128 160.714 38.0714 160.714C41.0301 160.714 43.4286 163.113 43.4286 166.071Z" fill="white"/>
<path d="M75.5714 166.071C75.5714 169.03 73.173 171.429 70.2143 171.429C67.2556 171.429 64.8571 169.03 64.8571 166.071C64.8571 163.113 67.2556 160.714 70.2143 160.714C73.173 160.714 75.5714 163.113 75.5714 166.071Z" fill="white"/>
<path d="M107.714 166.071C107.714 169.03 105.316 171.429 102.357 171.429C99.3985 171.429 97 169.03 97 166.071C97 163.113 99.3985 160.714 102.357 160.714C105.316 160.714 107.714 163.113 107.714 166.071Z" fill="white"/>
<path d="M139.857 166.071C139.857 169.03 137.459 171.429 134.5 171.429C131.541 171.429 129.143 169.03 129.143 166.071C129.143 163.113 131.541 160.714 134.5 160.714C137.459 160.714 139.857 163.113 139.857 166.071Z" fill="white"/>
<path d="M172 166.071C172 169.03 169.602 171.429 166.643 171.429C163.684 171.429 161.286 169.03 161.286 166.071C161.286 163.113 163.684 160.714 166.643 160.714C169.602 160.714 172 163.113 172 166.071Z" fill="white"/>
<path d="M-117.286 198.214C-117.286 201.173 -119.684 203.571 -122.643 203.571C-125.602 203.571 -128 201.173 -128 198.214C-128 195.256 -125.602 192.857 -122.643 192.857C-119.684 192.857 -117.286 195.256 -117.286 198.214Z" fill="white"/>
<path d="M-85.1429 198.214C-85.1429 201.173 -87.5413 203.571 -90.5 203.571C-93.4587 203.571 -95.8571 201.173 -95.8571 198.214C-95.8571 195.256 -93.4587 192.857 -90.5 192.857C-87.5413 192.857 -85.1429 195.256 -85.1429 198.214Z" fill="white"/>
<path d="M-53 198.214C-53 201.173 -55.3985 203.571 -58.3571 203.571C-61.3158 203.571 -63.7143 201.173 -63.7143 198.214C-63.7143 195.256 -61.3158 192.857 -58.3571 192.857C-55.3985 192.857 -53 195.256 -53 198.214Z" fill="white"/>
<path d="M-20.8571 198.214C-20.8571 201.173 -23.2556 203.571 -26.2143 203.571C-29.173 203.571 -31.5714 201.173 -31.5714 198.214C-31.5714 195.256 -29.173 192.857 -26.2143 192.857C-23.2556 192.857 -20.8571 195.256 -20.8571 198.214Z" fill="white"/>
<path d="M11.2857 198.214C11.2857 201.173 8.88724 203.571 5.92857 203.571C2.96991 203.571 0.571426 201.173 0.571426 198.214C0.571426 195.256 2.96991 192.857 5.92857 192.857C8.88724 192.857 11.2857 195.256 11.2857 198.214Z" fill="white"/>
<path d="M43.4286 198.214C43.4286 201.173 41.0301 203.571 38.0714 203.571C35.1128 203.571 32.7143 201.173 32.7143 198.214C32.7143 195.256 35.1128 192.857 38.0714 192.857C41.0301 192.857 43.4286 195.256 43.4286 198.214Z" fill="white"/>
<path d="M75.5714 198.214C75.5714 201.173 73.173 203.571 70.2143 203.571C67.2556 203.571 64.8571 201.173 64.8571 198.214C64.8571 195.256 67.2556 192.857 70.2143 192.857C73.173 192.857 75.5714 195.256 75.5714 198.214Z" fill="white"/>
<path d="M107.714 198.214C107.714 201.173 105.316 203.571 102.357 203.571C99.3985 203.571 97 201.173 97 198.214C97 195.256 99.3985 192.857 102.357 192.857C105.316 192.857 107.714 195.256 107.714 198.214Z" fill="white"/>
<path d="M139.857 198.214C139.857 201.173 137.459 203.571 134.5 203.571C131.541 203.571 129.143 201.173 129.143 198.214C129.143 195.256 131.541 192.857 134.5 192.857C137.459 192.857 139.857 195.256 139.857 198.214Z" fill="white"/>
<path d="M172 198.214C172 201.173 169.602 203.571 166.643 203.571C163.684 203.571 161.286 201.173 161.286 198.214C161.286 195.256 163.684 192.857 166.643 192.857C169.602 192.857 172 195.256 172 198.214Z" fill="white"/>
<path d="M-85.1429 230.357C-85.1429 233.316 -87.5413 235.714 -90.5 235.714C-93.4587 235.714 -95.8571 233.316 -95.8571 230.357C-95.8571 227.398 -93.4587 225 -90.5 225C-87.5413 225 -85.1429 227.398 -85.1429 230.357Z" fill="white"/>
<path d="M-53 230.357C-53 233.316 -55.3985 235.714 -58.3571 235.714C-61.3158 235.714 -63.7143 233.316 -63.7143 230.357C-63.7143 227.398 -61.3158 225 -58.3571 225C-55.3985 225 -53 227.398 -53 230.357Z" fill="white"/>
<path d="M-20.8571 230.357C-20.8571 233.316 -23.2556 235.714 -26.2143 235.714C-29.173 235.714 -31.5714 233.316 -31.5714 230.357C-31.5714 227.398 -29.173 225 -26.2143 225C-23.2556 225 -20.8571 227.398 -20.8571 230.357Z" fill="white"/>
<path d="M11.2857 230.357C11.2857 233.316 8.88724 235.714 5.92857 235.714C2.96991 235.714 0.571426 233.316 0.571426 230.357C0.571426 227.398 2.96991 225 5.92857 225C8.88724 225 11.2857 227.398 11.2857 230.357Z" fill="white"/>
<path d="M43.4286 230.357C43.4286 233.316 41.0301 235.714 38.0714 235.714C35.1128 235.714 32.7143 233.316 32.7143 230.357C32.7143 227.398 35.1128 225 38.0714 225C41.0301 225 43.4286 227.398 43.4286 230.357Z" fill="white"/>
<path d="M75.5714 230.357C75.5714 233.316 73.173 235.714 70.2143 235.714C67.2556 235.714 64.8571 233.316 64.8571 230.357C64.8571 227.398 67.2556 225 70.2143 225C73.173 225 75.5714 227.398 75.5714 230.357Z" fill="white"/>
<path d="M107.714 230.357C107.714 233.316 105.316 235.714 102.357 235.714C99.3985 235.714 97 233.316 97 230.357C97 227.398 99.3985 225 102.357 225C105.316 225 107.714 227.398 107.714 230.357Z" fill="white"/>
<path d="M139.857 230.357C139.857 233.316 137.459 235.714 134.5 235.714C131.541 235.714 129.143 233.316 129.143 230.357C129.143 227.398 131.541 225 134.5 225C137.459 225 139.857 227.398 139.857 230.357Z" fill="white"/>
<path d="M-53 262.5C-53 265.459 -55.3985 267.857 -58.3571 267.857C-61.3158 267.857 -63.7143 265.459 -63.7143 262.5C-63.7143 259.541 -61.3158 257.143 -58.3571 257.143C-55.3985 257.143 -53 259.541 -53 262.5Z" fill="white"/>
<path d="M-20.8571 262.5C-20.8571 265.459 -23.2556 267.857 -26.2143 267.857C-29.173 267.857 -31.5714 265.459 -31.5714 262.5C-31.5714 259.541 -29.173 257.143 -26.2143 257.143C-23.2556 257.143 -20.8571 259.541 -20.8571 262.5Z" fill="white"/>
<path d="M11.2857 262.5C11.2857 265.459 8.88724 267.857 5.92857 267.857C2.96991 267.857 0.571426 265.459 0.571426 262.5C0.571426 259.541 2.96991 257.143 5.92857 257.143C8.88724 257.143 11.2857 259.541 11.2857 262.5Z" fill="white"/>
<path d="M43.4286 262.5C43.4286 265.459 41.0301 267.857 38.0714 267.857C35.1128 267.857 32.7143 265.459 32.7143 262.5C32.7143 259.541 35.1128 257.143 38.0714 257.143C41.0301 257.143 43.4286 259.541 43.4286 262.5Z" fill="white"/>
<path d="M75.5714 262.5C75.5714 265.459 73.173 267.857 70.2143 267.857C67.2556 267.857 64.8571 265.459 64.8571 262.5C64.8571 259.541 67.2556 257.143 70.2143 257.143C73.173 257.143 75.5714 259.541 75.5714 262.5Z" fill="white"/>
<path d="M107.714 262.5C107.714 265.459 105.316 267.857 102.357 267.857C99.3985 267.857 97 265.459 97 262.5C97 259.541 99.3985 257.143 102.357 257.143C105.316 257.143 107.714 259.541 107.714 262.5Z" fill="white"/>
<path d="M-20.8571 294.643C-20.8571 297.602 -23.2556 300 -26.2143 300C-29.173 300 -31.5714 297.602 -31.5714 294.643C-31.5714 291.684 -29.173 289.286 -26.2143 289.286C-23.2556 289.286 -20.8571 291.684 -20.8571 294.643Z" fill="white"/>
<path d="M11.2857 294.643C11.2857 297.602 8.88724 300 5.92857 300C2.96991 300 0.571426 297.602 0.571426 294.643C0.571426 291.684 2.96991 289.286 5.92857 289.286C8.88724 289.286 11.2857 291.684 11.2857 294.643Z" fill="white"/>
<path d="M43.4286 294.643C43.4286 297.602 41.0301 300 38.0714 300C35.1128 300 32.7143 297.602 32.7143 294.643C32.7143 291.684 35.1128 289.286 38.0714 289.286C41.0301 289.286 43.4286 291.684 43.4286 294.643Z" fill="white"/>
<path d="M75.5714 294.643C75.5714 297.602 73.173 300 70.2143 300C67.2556 300 64.8571 297.602 64.8571 294.643C64.8571 291.684 67.2556 289.286 70.2143 289.286C73.173 289.286 75.5714 291.684 75.5714 294.643Z" fill="white"/>
</svg>
