<svg width="259" height="154" viewBox="0 0 259 154" fill="none" xmlns="http://www.w3.org/2000/svg">
<path fill-rule="evenodd" clip-rule="evenodd" d="M58 22C64.0751 22 69 17.0752 69 11C69 4.9248 64.0751 0 58 0C51.9249 0 47 4.9248 47 11C47 17.0752 51.9249 22 58 22ZM108 19C112.418 19 116 15.4182 116 11C116 6.58179 112.418 3 108 3C103.582 3 100 6.58179 100 11C100 15.4182 103.582 19 108 19ZM16 11C16 15.4182 12.4183 19 8 19C3.58173 19 0 15.4182 0 11C0 6.58179 3.58173 3 8 3C12.4183 3 16 6.58179 16 11ZM201 22C207.075 22 212 17.0752 212 11C212 4.9248 207.075 0 201 0C194.925 0 190 4.9248 190 11C190 17.0752 194.925 22 201 22ZM259 11C259 15.4182 255.418 19 251 19C246.582 19 243 15.4182 243 11C243 6.58179 246.582 3 251 3C255.418 3 259 6.58179 259 11ZM151 19C155.418 19 159 15.4182 159 11C159 6.58179 155.418 3 151 3C146.582 3 143 6.58179 143 11C143 15.4182 146.582 19 151 19ZM69 55C69 61.0752 64.0751 66 58 66C51.9249 66 47 61.0752 47 55C47 48.9248 51.9249 44 58 44C64.0751 44 69 48.9248 69 55ZM108 63C112.418 63 116 59.4182 116 55C116 50.5818 112.418 47 108 47C103.582 47 100 50.5818 100 55C100 59.4182 103.582 63 108 63ZM16 55C16 59.4182 12.4183 63 8 63C3.58173 63 0 59.4182 0 55C0 50.5818 3.58173 47 8 47C12.4183 47 16 50.5818 16 55ZM201 66C207.075 66 212 61.0752 212 55C212 48.9248 207.075 44 201 44C194.925 44 190 48.9248 190 55C190 61.0752 194.925 66 201 66ZM259 55C259 59.4182 255.418 63 251 63C246.582 63 243 59.4182 243 55C243 50.5818 246.582 47 251 47C255.418 47 259 50.5818 259 55ZM151 63C155.418 63 159 59.4182 159 55C159 50.5818 155.418 47 151 47C146.582 47 143 50.5818 143 55C143 59.4182 146.582 63 151 63ZM69 99C69 105.075 64.0751 110 58 110C51.9249 110 47 105.075 47 99C47 92.9248 51.9249 88 58 88C64.0751 88 69 92.9248 69 99ZM108 107C112.418 107 116 103.418 116 99C116 94.5818 112.418 91 108 91C103.582 91 100 94.5818 100 99C100 103.418 103.582 107 108 107ZM16 99C16 103.418 12.4183 107 8 107C3.58173 107 0 103.418 0 99C0 94.5818 3.58173 91 8 91C12.4183 91 16 94.5818 16 99ZM201 110C207.075 110 212 105.075 212 99C212 92.9248 207.075 88 201 88C194.925 88 190 92.9248 190 99C190 105.075 194.925 110 201 110ZM259 99C259 103.418 255.418 107 251 107C246.582 107 243 103.418 243 99C243 94.5818 246.582 91 251 91C255.418 91 259 94.5818 259 99ZM151 107C155.418 107 159 103.418 159 99C159 94.5818 155.418 91 151 91C146.582 91 143 94.5818 143 99C143 103.418 146.582 107 151 107ZM69 143C69 149.075 64.0751 154 58 154C51.9249 154 47 149.075 47 143C47 136.925 51.9249 132 58 132C64.0751 132 69 136.925 69 143ZM108 151C112.418 151 116 147.418 116 143C116 138.582 112.418 135 108 135C103.582 135 100 138.582 100 143C100 147.418 103.582 151 108 151ZM16 143C16 147.418 12.4183 151 8 151C3.58173 151 0 147.418 0 143C0 138.582 3.58173 135 8 135C12.4183 135 16 138.582 16 143ZM201 154C207.075 154 212 149.075 212 143C212 136.925 207.075 132 201 132C194.925 132 190 136.925 190 143C190 149.075 194.925 154 201 154ZM259 143C259 147.418 255.418 151 251 151C246.582 151 243 147.418 243 143C243 138.582 246.582 135 251 135C255.418 135 259 138.582 259 143ZM151 151C155.418 151 159 147.418 159 143C159 138.582 155.418 135 151 135C146.582 135 143 138.582 143 143C143 147.418 146.582 151 151 151Z" fill="#EECC8C"/>
</svg>
