<?xml version="1.0" encoding="UTF-8"?>
<!DOCTYPE svg PUBLIC "-//W3C//DTD SVG 1.1//EN" "http://www.w3.org/Graphics/SVG/1.1/DTD/svg11.dtd">
<!-- Creator: CorelDRAW X7 -->
<svg xmlns="http://www.w3.org/2000/svg" xml:space="preserve" width="4.472in" height="0.21in" version="1.1" style="shape-rendering:geometricPrecision; text-rendering:geometricPrecision; image-rendering:optimizeQuality; fill-rule:evenodd; clip-rule:evenodd"
viewBox="0 0 4472 210"
 xmlns:xlink="http://www.w3.org/1999/xlink">
 <defs>
  <style type="text/css">
   <![CDATA[
    .fil0 {fill:#FEFEFE}
   ]]>
  </style>
 </defs>
 <g id="Layer_x0020_1">
  <metadata id="CorelCorpID_0Corel-Layer"/>
  <path class="fil0" d="M0 210l0 -160c199,0 96,-25 180,-25 61,0 74,19 122,28 98,18 -14,-20 198,-20 50,0 68,42 97,42 121,0 141,-86 292,50 55,-8 134,-14 195,-17 147,-6 95,-33 166,-33 107,0 200,85 295,10 65,-52 157,-67 265,-30 77,27 0,16 65,45 60,-10 45,-29 119,-23 82,7 103,53 240,5 41,-15 62,-34 99,-49 70,11 13,14 85,24 142,19 136,-11 189,45 44,47 135,61 143,6 103,5 7,27 128,20 74,-5 100,2 155,-17 61,-20 91,-67 175,-111 50,16 52,13 84,42 28,-9 82,-17 125,-17 58,0 21,17 71,65 119,115 180,1 220,1 61,0 22,7 65,4 71,-7 -23,-12 116,-12 47,0 21,13 74,22 106,18 84,-10 189,28l84 25c84,-34 39,-38 153,8 32,-10 36,-14 83,-16l0 60 -4472 0z"/>
 </g>
</svg>
