<svg width="778" height="334" viewBox="0 0 778 334" fill="none" xmlns="http://www.w3.org/2000/svg">
<g clip-path="url(#clip0_469_161)">
<g filter="url(#filter0_d_469_161)">
<path fill-rule="evenodd" clip-rule="evenodd" d="M-1148.34 588.785C-1221.43 602.282 -1291.82 629.078 -1354.49 660.562C-1365.96 666.325 -1377.16 672.244 -1388.08 678.265C-1441.82 712.386 -1485.15 746.799 -1512.97 772.745L-1515 770.549C-1494.48 751.407 -1465.59 727.708 -1430.36 702.919C-1489.86 739.538 -1537.77 777.269 -1567.71 805.193L-1569.75 802.997C-1532.84 768.576 -1468.88 719.415 -1389.6 675.68C-1362.51 658.481 -1332.79 641.36 -1301.08 625.43C-1236.1 592.782 -1162.73 565.107 -1086.57 552.035C-1064.5 538.641 -1040.9 525.444 -1016.08 512.976C-921.266 465.339 -808.598 428.291 -695.458 431.743C-641.807 433.38 -591.982 431.141 -546.023 425.723C-532.59 411.631 -521.315 397.142 -512.214 382.531C-495.646 355.932 -466.912 333.195 -429.253 314.331C-426.093 312.748 -422.869 311.192 -419.583 309.663C-406.557 299.621 -391.435 290.36 -374.51 281.882C-336.836 263.011 -290.12 247.963 -237.435 236.801C-221 233.32 -203.98 230.215 -186.468 227.491C-174.104 218.28 -159.954 209.742 -144.253 201.877C-141.093 200.294 -137.869 198.738 -134.583 197.209C-121.557 187.167 -106.435 177.906 -89.5098 169.429C-51.8358 150.558 -5.12 135.509 47.5648 124.348C152.936 102.025 282.359 95.2164 411.492 104.599C412.554 104.677 413.617 104.748 414.679 104.813C476.524 51.6054 526.192 -5.64317 556.051 -47.0976L558.479 -45.3433C528.881 -4.24988 479.941 52.2484 418.995 105.047C422.229 105.198 425.461 105.295 428.692 105.34C449.742 89.3531 469.738 72.5452 488.439 55.5414C496.385 45.6273 503.529 36.2258 509.799 27.5209L512.228 29.2751C509.117 33.5936 505.793 38.0822 502.264 42.7188C548.868 -1.36809 586.427 -45.7163 610.794 -79.5461L613.223 -77.7919C586.411 -40.5671 543.728 9.29832 490.626 57.604C478.732 72.4347 465.054 88.4009 449.826 104.895C456.835 104.506 463.833 103.882 470.813 103.035C510.587 63.779 542.811 25.2426 564.542 -4.92778L566.971 -3.17342C545.662 26.4109 514.329 63.9796 475.708 102.404C524.561 95.7423 572.527 78.288 617.893 54.4678C627.963 47.8242 637.851 40.9309 647.535 33.8449C733.509 -29.063 803.199 -106.999 841.051 -159.551L843.479 -157.797C805.47 -105.026 735.565 -26.8521 649.299 36.269C648.053 37.1808 646.803 38.0895 645.551 38.995C665.085 27.3993 684.043 14.7393 702.278 1.39641C727.535 -17.0844 751.387 -36.8623 773.439 -56.9125C781.385 -66.8266 788.529 -76.2281 794.799 -84.933L797.228 -83.1787C794.117 -78.8602 790.793 -74.3716 787.264 -69.735C833.868 -113.822 871.427 -158.17 895.794 -192L898.223 -190.246C871.411 -153.021 828.728 -103.156 775.626 -54.8498C735.451 -4.75645 674.929 58.2914 603.047 110.888C602.646 111.182 602.243 111.475 601.841 111.769C600.995 112.385 600.147 113 599.299 113.614C618.833 102.018 637.791 89.3578 656.027 76.0148C742.001 13.1068 811.69 -64.8289 849.542 -117.382L851.971 -115.627C813.962 -62.8567 744.056 15.3177 657.791 78.439C631.021 98.0266 602.656 116.179 573.162 131.675C501.316 179.053 420 213.936 337.218 215.392C321.286 225.678 304.906 235.332 288.162 244.129C208.534 296.639 117.272 333.8 25.2742 327.116C-61.1895 320.833 -147.753 321.825 -227.08 329.875C-256.198 369.386 -301.156 407.137 -361.588 437.77C-422.41 479.883 -506.14 514.136 -612.128 530.996C-622.991 537.662 -634.479 544.086 -646.588 550.224C-739.212 614.357 -884.966 660.263 -1081.55 654.265C-1114.68 653.254 -1147.78 655.738 -1180.42 660.959C-1219.85 688.036 -1251.99 714.176 -1274.22 734.909L-1276.26 732.713C-1255.73 713.572 -1226.84 689.873 -1191.61 665.083C-1251.12 701.702 -1299.02 739.434 -1328.96 767.358L-1331 765.162C-1301.16 737.326 -1253.62 699.852 -1194.6 663.403C-1220.61 668.208 -1246.29 674.698 -1271.39 682.484C-1275.41 686.027 -1279.18 689.451 -1282.71 692.74L-1284.75 690.543C-1282.7 688.634 -1280.57 686.679 -1278.36 684.682C-1321.27 698.454 -1362.45 715.942 -1400.74 735.181C-1412.21 740.943 -1423.42 746.862 -1434.33 752.884C-1488.07 787.004 -1531.4 821.417 -1559.22 847.363L-1561.26 845.167C-1540.73 826.026 -1511.84 802.327 -1476.61 777.537C-1536.12 814.156 -1584.02 851.888 -1613.96 879.812L-1616 877.615C-1579.1 843.194 -1515.13 794.034 -1435.86 750.298C-1408.76 733.099 -1379.04 715.978 -1347.33 700.048C-1314.91 683.758 -1280.4 668.705 -1244.49 656.088C-1218.01 635.014 -1185.45 611.697 -1148.34 588.785ZM-1128.41 582.413C-1120.25 576.896 -1111.8 571.35 -1103.08 565.812C-1095.99 561.899 -1088.77 558.03 -1081.44 554.219C-1048.15 548.775 -1014.37 546.167 -980.555 547.198C-977.074 547.304 -973.609 547.394 -970.16 547.468C-994.021 556.237 -1017.23 566.045 -1039.57 576.532C-1069.33 575.896 -1099.05 578.038 -1128.41 582.413ZM-1141.32 584.484C-1214.1 596.976 -1284.33 622.805 -1347.13 653.565C-1331.92 644.866 -1316.1 636.331 -1299.74 628.114C-1237.08 596.629 -1166.69 569.833 -1093.6 556.336C-1097.31 558.63 -1100.98 560.927 -1104.6 563.226C-1117.25 570.201 -1129.5 577.314 -1141.32 584.484ZM-1251.62 661.822C-1284.47 673.77 -1316.11 687.718 -1345.99 702.732C-1362.35 710.95 -1378.18 719.485 -1393.38 728.184C-1355.56 709.657 -1315.04 692.919 -1272.89 679.807C-1266.4 674.089 -1259.29 668.069 -1251.62 661.822ZM-1265.86 677.659C-1258.88 671.632 -1251.25 665.303 -1243.03 658.754C-1236.6 656.499 -1230.13 654.323 -1223.61 652.233C-1225.83 654.23 -1227.96 656.185 -1230 658.095L-1227.97 660.291C-1224.44 657.003 -1220.67 653.578 -1216.65 650.036C-1191.54 642.249 -1165.87 635.759 -1139.85 630.955C-1143.57 633.248 -1147.24 635.546 -1150.86 637.844C-1163.5 644.82 -1175.75 651.933 -1187.57 659.102C-1214.08 663.653 -1240.26 669.974 -1265.86 677.659ZM-1174.66 657.031C-1143.87 652.443 -1112.68 650.311 -1081.45 651.263C-898.2 656.854 -759.591 617.238 -667.176 560.106C-756.906 600.858 -877.121 626.383 -1026.81 621.816C-1060.62 620.785 -1094.4 623.393 -1127.69 628.837C-1135.02 632.648 -1142.24 636.517 -1149.33 640.43C-1158.06 645.969 -1166.51 651.515 -1174.66 657.031ZM-1119.2 624.477C-1088.65 619.962 -1057.7 617.869 -1026.71 618.815C-865.707 623.727 -739.166 593.743 -648.136 547.644C-641.463 543.018 -635.069 538.299 -628.956 533.499C-663.124 538.234 -699.504 541.189 -738.075 542.064C-814.368 566.898 -907.313 581.588 -1016.5 580.065C-1051.09 592.393 -1084.38 606.973 -1115.74 622.727C-1116.9 623.309 -1118.05 623.892 -1119.2 624.477ZM-1008.16 577.147C-907.317 577.8 -820.698 564.512 -748.583 542.25C-764.22 542.45 -780.21 542.31 -796.551 541.811C-812.838 541.314 -829.119 541.662 -845.341 542.764C-852.72 543.513 -860.194 544.18 -867.763 544.764C-915.754 550.051 -963.012 561.631 -1008.16 577.147ZM-903.91 546.88C-942.576 553.606 -980.512 564.085 -1016.99 577.055C-1022.24 576.979 -1027.53 576.866 -1032.85 576.714C-1009.95 566.145 -986.177 556.32 -961.754 547.617C-941.937 547.893 -922.655 547.635 -903.91 546.88ZM-845.512 539.766C-853.055 540.278 -860.585 540.953 -868.095 541.78C-895.299 543.876 -923.743 544.891 -953.417 544.699C-886.053 521.547 -813.993 507.16 -741.807 509.363C-725.467 509.861 -709.477 510.001 -693.84 509.802C-738.786 523.677 -789.366 534.066 -845.512 539.766ZM-810.821 538.587C-806.033 538.59 -801.244 538.663 -796.453 538.809C-776.637 539.414 -757.343 539.49 -738.572 539.072C-711.478 530.232 -686.513 520.109 -663.691 508.984C-670.174 509.255 -676.721 509.466 -683.332 509.616C-721.646 522.087 -764.16 532 -810.821 538.587ZM-673.547 506.344C-667.995 506.166 -662.49 505.943 -657.032 505.679C-644.303 499.246 -632.266 492.499 -620.925 485.488C-637.436 492.986 -654.979 499.969 -673.547 506.344ZM-656.25 508.646C-678.235 519.72 -702.254 529.854 -728.29 538.793C-691.589 537.612 -656.934 534.53 -624.341 529.816C-613.887 521.34 -604.294 512.625 -595.567 503.743C-615.11 505.966 -635.339 507.618 -656.25 508.646ZM-592.275 500.342C-610.796 502.525 -629.945 504.192 -649.718 505.297C-631.86 495.978 -615.396 486.033 -600.336 475.606C-588.227 469.468 -576.739 463.044 -565.876 456.377C-562.915 455.906 -559.971 455.422 -557.045 454.924C-557.528 455.663 -558.002 456.404 -558.466 457.149C-567.567 471.76 -578.842 486.25 -592.275 500.342ZM-590.852 503.194C-599.27 511.965 -608.512 520.576 -618.575 528.962C-616.776 528.69 -614.984 528.412 -613.198 528.129C-599.138 519.476 -586.141 510.417 -574.213 501.05C-579.702 501.811 -585.249 502.526 -590.852 503.194ZM-569.598 497.368C-575.539 498.227 -581.548 499.032 -587.626 499.781C-575.144 486.376 -564.572 472.619 -555.925 458.736C-554.979 457.218 -553.993 455.712 -552.965 454.219C-541.703 452.244 -530.701 450.07 -519.96 447.709C-533.469 464.791 -550.024 481.497 -569.598 497.368ZM-568.346 500.217C-579.747 509.42 -592.15 518.338 -605.551 526.882C-513.76 511.469 -439.18 482.893 -382.176 447.652C-434.093 471.231 -496.215 489.712 -568.346 500.217ZM-563.831 496.514C-544.699 480.568 -528.531 463.81 -515.358 446.682C-432.949 428.031 -366.148 398.334 -315.337 363.152C-297.783 354.254 -281.536 344.756 -266.602 334.789C-269.08 338.029 -271.37 341.331 -273.466 344.696C-293.194 376.367 -323.136 407.467 -363.136 435.19C-417.461 462.701 -484.434 484.473 -563.831 496.514ZM-512.55 442.964C-441.864 426.612 -382.921 402.088 -335.925 373.034C-382.024 393.97 -436.169 410.888 -498.222 421.77C-499.249 423.264 -500.236 424.77 -501.181 426.287C-504.66 431.872 -508.449 437.435 -512.55 442.964ZM-495.735 418.284C-425.826 405.753 -366.154 385.523 -316.885 360.572C-306.108 353.103 -296.062 345.389 -286.749 337.485C-304.301 340.211 -321.354 343.319 -337.816 346.807C-385.797 356.971 -428.715 370.352 -464.274 386.864C-476.902 396.631 -487.472 407.109 -495.735 418.284ZM-281.154 336.632C-286.568 341.352 -292.235 346.007 -298.156 350.585C-289.429 345.687 -281.069 340.636 -273.076 335.453C-275.78 335.837 -278.473 336.23 -281.154 336.632ZM-267.256 331.613C-270.534 332.059 -273.796 332.518 -277.043 332.99C-268.122 324.964 -259.927 316.758 -252.463 308.427C-247.587 307.567 -242.667 306.737 -237.706 305.938C-245.897 312.422 -253.222 319.227 -259.604 326.351C-262.114 328.118 -264.665 329.872 -267.256 331.613ZM-262.139 333.956C-265.375 337.972 -268.307 342.081 -270.925 346.282C-287.975 373.656 -312.509 400.54 -344.408 425.203C-294.692 397.299 -256.864 364.453 -231.128 330.292C-241.6 331.39 -251.942 332.611 -262.139 333.956ZM-228.704 327.022C-239.035 328.082 -249.242 329.261 -259.311 330.559C-258.754 329.911 -258.188 329.265 -257.615 328.622C-246.416 320.723 -236.013 312.556 -226.411 304.183C-221.53 303.452 -216.611 302.75 -211.658 302.078C-214.213 305.402 -216.571 308.792 -218.723 312.247C-221.801 317.19 -225.129 322.118 -228.704 327.022ZM-224.72 326.62C-145.921 318.796 -60.1482 317.897 25.4968 324.12C107.443 330.075 188.997 300.885 262.3 256.878C204.123 283.653 142.239 299.188 80.0173 294.667C-19.3693 287.445 -118.888 289.836 -207.396 301.507C-210.632 305.523 -213.564 309.632 -216.181 313.833C-218.845 318.11 -221.691 322.374 -224.72 326.62ZM-204.568 298.111C-116.633 286.771 -18.1123 284.525 80.2401 291.672C151.021 296.815 221.51 275.738 286.641 241.54C296.711 234.897 306.599 228.003 316.283 220.917C318.81 219.068 321.323 217.207 323.821 215.333C319.308 215.213 314.792 214.99 310.274 214.662C293.492 213.442 276.705 212.497 259.969 211.824C200.01 240.359 135.949 257.178 71.5259 252.497C8.39294 247.91 -54.7932 247.201 -115.177 250.286C-138.469 257.394 -159.957 265.44 -179.274 274.41C-188.952 281.895 -197.42 289.797 -204.568 298.111ZM-103.041 246.713C-46.2627 244.309 12.7733 245.217 71.7487 249.502C133.666 254.001 195.359 238.436 253.438 211.575C244.843 211.266 236.263 211.028 227.706 210.863C194.365 218.981 160.368 222.526 126.269 220.049C105.596 218.546 84.9176 217.46 64.3335 216.787C23.0565 220.758 -16.333 226.624 -52.816 234.353C-70.2639 238.049 -87.0422 242.17 -103.041 246.713ZM41.2686 216.204C8.14343 220.021 -23.6068 225.097 -53.4302 231.415C-75.2841 236.044 -96.1108 241.343 -115.691 247.306C-123.235 247.693 -130.736 248.14 -138.187 248.645C-136.944 248.003 -135.69 247.366 -134.426 246.733C-112.646 235.823 -87.7828 226.184 -60.4336 217.837C-27.2224 216.141 6.83679 215.592 41.2686 216.204ZM87.9868 214.734C100.809 215.347 113.652 216.12 126.492 217.053C156.156 219.209 185.768 216.759 214.956 210.668C171.647 210.189 129.007 211.553 87.9868 214.734ZM227.378 207.852C171.379 206.782 116.323 208.776 64.2448 213.779C26.2032 212.539 -11.5209 212.707 -48.2976 214.265C-32.2992 209.722 -15.5208 205.6 1.92725 201.904C91.515 182.925 198.628 175.183 308.182 179.127C281.883 191.289 254.844 201.136 227.378 207.852ZM238.383 208.102C245.362 208.285 252.355 208.516 259.355 208.794C276.094 200.799 292.52 191.884 308.551 182.259C285.667 192.792 262.209 201.585 238.383 208.102ZM265.693 209.058C280.606 209.712 295.554 210.581 310.497 211.666C316.233 212.083 321.967 212.328 327.697 212.407C340.601 202.607 353.109 192.498 365.166 182.224C365.116 182.22 365.067 182.217 365.017 182.213C349.584 181.092 334.147 180.202 318.749 179.543C301.522 190.249 283.802 200.178 265.693 209.058ZM323.229 176.735C337.215 177.372 351.229 178.2 365.24 179.218C366.302 179.295 367.365 179.366 368.427 179.432C383.953 166.074 398.711 152.462 412.581 138.909C402.906 139.97 393.198 140.602 383.469 140.773C367.538 151.06 351.158 160.713 334.414 169.51C330.711 171.953 326.982 174.362 323.229 176.735ZM388.269 137.647C397.558 137.336 406.828 136.605 416.07 135.483C425.352 126.322 434.223 117.201 442.645 108.215C438.326 108.353 434.003 108.401 429.677 108.356C426.161 111.019 422.616 113.66 419.042 116.274C409.001 123.622 398.735 130.768 388.269 137.647ZM424.816 108.266C422.318 110.14 419.805 112.001 417.278 113.85C405.975 122.121 394.394 130.129 382.57 137.784C381.332 137.803 380.093 137.813 378.854 137.817C391.546 128.082 403.847 118.058 415.705 107.883C418.743 108.058 421.781 108.185 424.816 108.266ZM411.418 107.605C411.368 107.602 411.319 107.598 411.269 107.595C282.356 98.2276 153.221 105.033 48.1791 127.286C-4.34253 138.412 -50.7968 153.392 -88.1742 172.114C-100.185 178.131 -111.248 184.528 -121.267 191.3C-88.1812 177.299 -49.6162 165.786 -7.17847 156.796C98.1925 134.474 227.616 127.665 356.749 137.048C362.485 137.465 368.219 137.709 373.949 137.789C386.853 127.988 399.361 117.879 411.418 107.605ZM370.073 140.714C365.56 140.594 361.044 140.372 356.526 140.043C227.613 130.676 98.4778 137.481 -6.56421 159.734C-54.5454 169.899 -97.4631 183.279 -133.022 199.791C-142.7 207.276 -151.168 215.179 -158.316 223.492C-127.038 219.459 -94.4208 216.576 -60.9482 214.857C-41.3677 208.894 -20.5409 203.596 1.31311 198.966C92.7625 179.593 202.329 171.905 314.099 176.345C320.409 173.331 326.676 170.186 332.893 166.922C342.963 160.278 352.851 153.385 362.535 146.299C365.062 144.45 367.575 142.588 370.073 140.714ZM-72.526 218.508C-102.96 220.331 -132.624 223.128 -161.144 226.889C-164.38 230.905 -167.312 235.014 -169.929 239.215C-172.593 243.491 -175.439 247.756 -178.468 252.002C-167.634 250.926 -156.667 249.981 -145.588 249.168C-142.384 247.43 -139.108 245.723 -135.762 244.047C-116.835 234.567 -95.6268 226.051 -72.526 218.508ZM-151.845 252.654C-161.603 253.419 -171.268 254.286 -180.828 255.256C-188.152 265.195 -196.479 275.023 -205.803 284.655C-200.885 281.859 -195.783 279.139 -190.505 276.496C-187.345 274.913 -184.121 273.356 -180.835 271.827C-172.088 265.084 -162.395 258.692 -151.845 252.654ZM-182.453 252.404C-178.877 247.5 -175.55 242.571 -172.471 237.629C-170.319 234.174 -167.961 230.784 -165.406 227.459C-172.096 228.368 -178.721 229.329 -185.277 230.344C-195.997 238.387 -205.305 246.922 -213.059 255.941C-202.99 254.643 -192.783 253.463 -182.453 252.404ZM-215.887 259.337C-205.691 257.993 -195.348 256.771 -184.876 255.674C-193.908 267.661 -204.428 279.487 -216.429 290.995C-222.155 294.584 -227.591 298.289 -232.72 302.11C-238.293 302.977 -243.817 303.882 -249.288 304.826C-239.841 293.932 -231.634 282.839 -224.673 271.664C-222.056 267.462 -219.123 263.353 -215.887 259.337ZM-217.456 256.517C-210.175 247.64 -201.461 239.241 -191.454 231.32C-207.003 233.824 -222.147 236.631 -236.821 239.74C-289.343 250.866 -335.797 265.846 -373.174 284.568C-385.185 290.584 -396.248 296.982 -406.267 303.754C-373.181 289.753 -334.616 278.24 -292.178 269.25C-268.402 264.213 -243.401 259.966 -217.456 256.517ZM-220.149 259.908C-222.705 263.232 -225.062 266.622 -227.214 270.077C-234.683 282.068 -243.616 293.977 -254.005 305.652C-264.09 307.443 -273.99 309.366 -283.687 311.42C-336.372 322.581 -383.088 337.63 -420.762 356.501C-437.687 364.979 -452.81 374.239 -465.835 384.281C-469.121 385.81 -472.345 387.366 -475.505 388.949C-480.783 391.593 -485.885 394.313 -490.803 397.109C-476.49 382.323 -464.525 367.073 -454.929 351.669C-446.079 337.461 -433.622 324.311 -418.022 312.245C-382.463 295.733 -339.545 282.353 -291.564 272.188C-268.808 267.367 -244.92 263.271 -220.149 259.908ZM-257.3 309.294C-266.038 310.882 -274.633 312.57 -283.073 314.358C-335.594 325.484 -382.049 340.464 -419.426 359.186C-431.437 365.203 -442.5 371.6 -452.519 378.373C-419.433 364.372 -380.868 352.859 -338.43 343.868C-320.437 340.057 -301.743 336.697 -282.468 333.793C-273.337 325.792 -264.947 317.607 -257.3 309.294ZM-222.3 300.542C-217.884 299.9 -213.438 299.281 -208.964 298.686C-203.638 292.193 -197.546 285.956 -190.741 279.973C-199.17 284.249 -207.123 288.714 -214.568 293.367C-217.081 295.773 -219.659 298.166 -222.3 300.542ZM-180.002 226.506C-174.288 225.653 -168.524 224.841 -162.712 224.068C-157.387 217.575 -151.294 211.337 -144.489 205.355C-157.501 211.955 -169.38 219.007 -180.002 226.506ZM374.934 140.804C375.902 140.814 376.87 140.82 377.838 140.821C372.129 144.451 366.365 147.997 360.551 151.449C361.804 150.543 363.053 149.635 364.299 148.723C367.873 146.108 371.418 143.468 374.934 140.804ZM433.597 105.368C437.584 105.358 441.568 105.269 445.549 105.103C456.582 93.2278 466.819 81.6124 476.171 70.4835C462.562 82.3573 448.343 94.0575 433.597 105.368ZM446.901 108.05C438.68 116.876 430.022 125.841 420.964 134.853C427.529 133.957 434.079 132.867 440.608 131.593C449.834 123.242 458.749 114.84 467.325 106.461C460.531 107.205 453.722 107.739 446.901 108.05ZM472.184 105.892C463.887 114.063 455.265 122.264 446.344 130.425C497.392 119.604 547.126 97.6766 593.552 69.8054C554.431 87.8105 513.633 100.733 472.184 105.892ZM436.314 135.455C430.04 136.591 423.748 137.555 417.441 138.34C403.427 152.143 388.486 166.028 372.743 179.666C375.977 179.817 379.209 179.914 382.44 179.959C401.302 165.633 419.318 150.649 436.314 135.455ZM387.345 179.986C406.512 165.285 424.789 149.924 441.994 134.38C504.277 122.075 564.602 93.2023 619.414 57.0565C648.907 41.5608 677.273 23.4081 704.042 3.8205C724.028 -10.8029 743.135 -26.2341 761.171 -41.9704C721.539 5.1907 666.029 61.0885 601.283 108.463C591.599 115.549 581.711 122.443 571.641 129.086C513.295 159.722 450.649 179.827 387.345 179.986ZM378.564 182.884C375.529 182.803 372.492 182.676 369.454 182.502C357.595 192.676 345.294 202.7 332.602 212.435C333.841 212.432 335.08 212.421 336.318 212.403C348.142 204.748 359.723 196.739 371.027 188.469C373.553 186.62 376.066 184.758 378.564 182.884ZM342.017 212.265C352.483 205.386 362.749 198.24 372.791 190.893C376.364 188.278 379.909 185.638 383.426 182.974C439.417 183.559 494.865 168.557 547.3 144.424C483.406 182.782 413.244 209.883 342.017 212.265ZM331.586 215.439C330.619 215.438 329.651 215.433 328.682 215.423C325.166 218.086 321.621 220.727 318.047 223.341C316.801 224.253 315.552 225.162 314.299 226.067C320.114 222.616 325.877 219.07 331.586 215.439ZM-144.731 252.116C-138.941 251.693 -133.119 251.307 -127.269 250.957C-141.427 255.579 -154.873 260.567 -167.519 265.919C-160.434 261.129 -152.827 256.528 -144.731 252.116ZM-499.967 419.031C-505.768 420.039 -511.639 420.995 -517.579 421.895C-511.251 416.621 -505.247 411.257 -499.568 405.821C-492.123 401.168 -484.17 396.702 -475.741 392.427C-485.26 400.795 -493.385 409.663 -499.967 419.031ZM-522.094 425.598C-515.411 424.625 -508.813 423.583 -502.302 422.475C-502.785 423.214 -503.259 423.956 -503.723 424.701C-507.749 431.165 -512.2 437.604 -517.076 443.997C-527.937 446.438 -539.071 448.688 -550.478 450.733C-548.053 447.454 -545.43 444.235 -542.615 441.076C-535.448 436.021 -528.607 430.856 -522.094 425.598ZM-528.949 423.541C-520.743 416.483 -511.539 409.785 -501.429 403.448C-483.44 386.2 -468.778 368.235 -457.471 350.082C-450.322 338.605 -440.908 327.847 -429.489 317.809C-466.1 336.378 -493.736 358.532 -509.673 384.117C-518.32 398 -528.893 411.758 -541.374 425.163C-537.2 424.648 -533.058 424.108 -528.949 423.541ZM-544.6 428.575C-540.7 428.111 -536.828 427.623 -532.983 427.113C-537.144 430.909 -541.023 434.807 -544.604 438.805C-551.726 443.819 -559.173 448.727 -566.946 453.511C-568.732 453.794 -570.524 454.071 -572.323 454.344C-562.26 445.958 -553.018 437.347 -544.6 428.575ZM-549.315 429.124C-594.425 434.257 -643.187 436.342 -695.555 434.744C-808.017 431.313 -920.175 468.147 -1014.74 515.66C-1031.1 523.877 -1046.92 532.413 -1062.13 541.112C-969.161 495.573 -859.903 460.844 -750.201 464.191C-687.6 466.101 -630.209 462.736 -578.089 455.198C-567.635 446.722 -558.042 438.007 -549.315 429.124ZM-582.704 458.881C-633.671 465.944 -689.559 469.046 -750.299 467.193C-862.76 463.762 -974.919 500.596 -1069.49 548.108C-1070.64 548.69 -1071.8 549.274 -1072.95 549.859C-1042.39 545.343 -1011.44 543.251 -980.458 544.196C-974.337 544.383 -968.266 544.52 -962.244 544.606C-892.378 519.763 -817.149 504.059 -741.71 506.361C-721.894 506.966 -702.599 507.042 -683.829 506.624C-653.912 496.862 -626.59 485.537 -601.885 473.026C-595.211 468.4 -588.817 463.681 -582.704 458.881ZM-576.837 458.047C-578.91 459.721 -581.017 461.385 -583.156 463.039C-579.952 461.24 -576.797 459.421 -573.692 457.583C-574.738 457.739 -575.786 457.894 -576.837 458.047ZM-559.3 452.264C-557.765 452.006 -556.235 451.745 -554.71 451.48C-553.71 450.056 -552.674 448.643 -551.602 447.242C-554.13 448.93 -556.696 450.604 -559.3 452.264ZM-619.943 532.201C-620.99 532.357 -622.038 532.512 -623.089 532.665C-625.162 534.339 -627.268 536.003 -629.408 537.657C-626.204 535.859 -623.049 534.04 -619.943 532.201ZM-1038.94 579.55C-1037.72 579.577 -1036.51 579.61 -1035.3 579.647C-1031.82 579.753 -1028.35 579.843 -1024.9 579.917C-1053.82 590.542 -1081.77 602.693 -1108.38 615.73C-1093.18 607.031 -1077.35 598.496 -1060.99 590.278C-1053.74 586.635 -1046.39 583.054 -1038.94 579.55ZM-1045.71 579.443C-1075.36 579.186 -1104.95 581.667 -1134.17 586.341C-1164.55 607.202 -1190.6 627.506 -1211.12 645.211C-1185.52 637.526 -1159.34 631.205 -1132.83 626.654C-1110.75 613.26 -1087.15 600.062 -1062.33 587.594C-1056.85 584.84 -1051.31 582.121 -1045.71 579.443ZM-1218.15 647.358C-1198.9 630.404 -1174.26 610.801 -1145.36 590.465C-1179.84 611.683 -1210.42 633.274 -1235.87 653.115C-1230 651.127 -1224.09 649.207 -1218.15 647.358Z" fill="#EECC8C"/>
</g>
</g>
<defs>
<filter id="filter0_d_469_161" x="-1620" y="-192" width="2522.22" height="1079.81" filterUnits="userSpaceOnUse" color-interpolation-filters="sRGB">
<feFlood flood-opacity="0" result="BackgroundImageFix"/>
<feColorMatrix in="SourceAlpha" type="matrix" values="0 0 0 0 0 0 0 0 0 0 0 0 0 0 0 0 0 0 127 0" result="hardAlpha"/>
<feOffset dy="4"/>
<feGaussianBlur stdDeviation="2"/>
<feComposite in2="hardAlpha" operator="out"/>
<feColorMatrix type="matrix" values="0 0 0 0 0 0 0 0 0 0 0 0 0 0 0 0 0 0 0.25 0"/>
<feBlend mode="normal" in2="BackgroundImageFix" result="effect1_dropShadow_469_161"/>
<feBlend mode="normal" in="SourceGraphic" in2="effect1_dropShadow_469_161" result="shape"/>
</filter>
<clipPath id="clip0_469_161">
<rect width="778" height="334" fill="white"/>
</clipPath>
</defs>
</svg>
