<svg width="866" height="306" viewBox="0 0 866 306" fill="none" xmlns="http://www.w3.org/2000/svg">
<g clip-path="url(#clip0_471_167)">
<path d="M-1108.9 809.724C-1025.07 731.855 -801.02 577.831 -575.419 584.686C-293.417 593.256 -116.576 495.324 -51.1119 390.651C14.3521 285.978 273.423 240.186 531.469 258.861C737.906 273.8 941.236 67.7385 1017.1 -37.1598M-1054.15 777.406C-970.328 699.537 -746.277 545.513 -520.675 552.369C-238.674 560.938 -61.8327 463.007 3.63135 358.333C69.0953 253.66 328.166 207.868 586.212 226.543C792.649 241.483 995.979 35.4209 1071.84 -69.4774M-1062.65 735.407C-978.82 657.538 -754.768 503.514 -529.167 510.369C-247.165 518.938 -70.324 421.007 -4.86004 316.334C60.604 211.661 319.675 165.869 577.721 184.543C784.157 199.483 987.488 -6.57877 1063.35 -111.477M-1007.9 703.089C-924.076 625.22 -700.025 471.196 -474.424 478.052C-192.422 486.621 -15.5808 388.689 49.8832 284.016C115.347 179.343 374.418 133.551 632.464 152.226C838.901 167.165 1042.23 -38.8963 1118.09 -143.795" stroke="#EECC8C" stroke-width="3"/>
</g>
<defs>
<clipPath id="clip0_471_167">
<rect width="866" height="306" fill="white"/>
</clipPath>
</defs>
</svg>
