<svg width="1364" height="642" viewBox="0 0 1364 642" fill="none" xmlns="http://www.w3.org/2000/svg">
<path fill-rule="evenodd" clip-rule="evenodd" d="M513.003 765.414C518.226 761.975 523.561 758.531 529.003 755.09C539.92 749.092 551.129 743.197 562.599 737.458C657.167 690.137 769.326 653.451 881.788 656.868C946.547 658.836 1005.79 655.194 1059.44 647.142C1046.15 659.776 1031.07 672.021 1014.2 683.668C1007.02 687.291 999.612 690.813 991.988 694.227C959.804 696.335 925.927 696.95 890.37 695.869C795.851 692.997 701.661 718.277 617.934 754.339C582.647 754.554 547.493 758.547 513.003 765.414ZM500.044 768.134C508.962 762.871 518.113 757.65 527.477 752.505C554.57 735.375 584.293 718.323 616 702.457C710.815 655.013 823.482 618.114 936.622 621.552C991.255 623.212 1041.92 620.871 1088.58 615.258C1094.22 608.072 1099.31 600.82 1103.87 593.539C1120.44 567.047 1149.17 544.401 1186.83 525.614C1189.99 524.038 1193.21 522.488 1196.5 520.965C1209.52 510.963 1224.65 501.74 1241.57 493.297C1279.25 474.502 1325.96 459.514 1378.65 448.398C1392.13 445.553 1406.01 442.96 1420.23 440.623C1437.01 422.513 1459.98 406.508 1487.83 392.614C1490.99 391.038 1494.21 389.488 1497.5 387.965C1510.52 377.963 1525.65 368.74 1542.57 360.297C1580.25 341.502 1626.96 326.514 1679.65 315.398C1785.02 293.165 1914.44 286.384 2043.57 295.73C2047.06 295.982 2050.56 296.171 2054.04 296.299C2105.08 249.516 2146.12 201.611 2172.13 165.644L2174.56 167.402C2148.83 202.981 2108.49 250.155 2058.34 296.424C2062.71 296.52 2067.08 296.519 2071.44 296.426C2082.86 287.046 2093.9 277.489 2104.52 267.868C2112.47 257.994 2119.61 248.631 2125.88 239.961L2128.31 241.719C2125.21 246.006 2121.9 250.461 2118.38 255.063C2164.97 211.165 2202.52 167.011 2226.88 133.326L2229.31 135.084C2202.5 172.159 2159.81 221.823 2106.71 269.934C2100.02 278.247 2092.76 286.918 2084.97 295.84C2092.76 295.333 2100.54 294.539 2108.29 293.475C2138.3 262.082 2162.94 232.102 2180.62 207.644L2183.06 209.402C2165.81 233.242 2142.01 262.288 2113.09 292.78C2160.11 285.64 2206.25 268.665 2249.97 245.8C2260.04 239.183 2269.93 232.317 2279.62 225.26C2365.59 162.606 2435.28 84.9845 2473.13 32.644L2475.56 34.4019C2437.55 86.9597 2367.65 164.818 2281.38 227.685C2280.17 228.57 2278.95 229.454 2277.73 230.333C2297.23 218.8 2316.15 206.21 2334.36 192.943C2359.62 174.536 2383.47 154.838 2405.52 134.868C2413.47 124.994 2420.61 115.631 2426.88 106.961L2429.31 108.719C2426.21 113.006 2422.9 117.461 2419.38 122.063C2465.97 78.1655 2503.52 34.0107 2527.88 0.326393L2530.31 2.08435C2503.5 39.1589 2460.81 88.8232 2407.71 136.934C2367.54 186.825 2307.01 249.618 2235.13 302.002C2233.92 302.888 2232.7 303.771 2231.48 304.651C2250.98 293.117 2269.9 280.527 2288.11 267.26C2374.08 204.606 2443.77 126.984 2481.62 74.6436L2484.06 76.4016C2446.05 128.959 2376.14 206.818 2289.88 269.684C2263.11 289.193 2234.74 307.272 2205.25 322.705C2137.98 366.884 2062.42 400.153 1985.12 405.406C1959.46 423.874 1932.36 440.992 1904.25 455.705C1824.62 508.004 1733.36 545.014 1641.36 538.357C1554.41 532.064 1467.36 533.099 1387.67 541.241C1359.13 572.818 1320.01 602.57 1270.5 627.565C1213.5 666.867 1136.4 699.296 1039.71 717.038C1019.27 732.601 995.856 747.257 969.497 760.565C876.873 824.439 731.12 870.159 534.536 864.186C495.395 862.996 456.291 866.664 417.953 873.948C393.695 892.08 373.372 909.102 357.867 923.505L355.825 921.307C370.34 907.824 389.04 892.07 411.211 875.268C409.248 875.663 407.288 876.067 405.33 876.481C362.046 905.458 326.913 933.724 303.124 955.823L301.082 953.625C323.828 932.495 356.854 905.789 397.408 878.208C332.969 892.674 271.101 916.876 215.347 944.775C203.878 950.514 192.668 956.409 181.751 962.407C128.015 996.389 84.6852 1030.66 56.8671 1056.51L54.8253 1054.31C75.3212 1035.27 104.163 1011.7 139.34 987.045C79.8946 1023.49 32.0397 1061.03 2.12382 1088.82L0.0820338 1086.62C36.9865 1052.34 100.951 1003.38 180.225 959.822C207.318 942.692 237.041 925.64 268.748 909.774C296.337 895.969 325.438 883.057 355.622 871.771C377.808 851.998 407.789 828.286 443.66 803.89C379.22 818.357 317.353 842.559 261.599 870.458C250.129 876.197 238.92 882.092 228.003 888.09C174.267 922.072 130.937 956.347 103.119 982.188L101.077 979.99C121.573 960.951 150.415 937.383 185.591 912.728C126.146 949.173 78.2916 986.716 48.3757 1014.51L46.3339 1012.31C83.2383 978.026 147.202 929.063 226.477 885.505C253.57 868.375 283.293 851.323 315 835.457C371.559 807.156 434.47 782.607 500.044 768.134ZM450.395 799.349C386.388 812.935 324.817 836.237 269.093 863.41C284.257 854.773 300.036 846.3 316.342 838.14C370.157 811.212 429.668 787.727 491.691 773.117C477.248 781.824 463.454 790.617 450.395 799.349ZM451.582 802.164C416.153 825.882 386.185 849.124 363.429 868.897C392.705 858.292 422.954 849.258 453.792 842.451C462.71 837.188 471.861 831.967 481.225 826.822C500.848 814.415 521.851 802.049 543.988 790.145C517.19 791.336 490.517 794.632 464.205 799.631C439.947 817.763 419.624 834.785 404.119 849.188L402.077 846.99C416.592 833.507 435.292 817.753 457.463 800.95C455.5 801.346 453.54 801.75 451.582 802.164ZM462.964 796.813C461.394 797.113 459.826 797.419 458.259 797.731C467.372 791.733 476.825 785.716 486.591 779.728C478.36 785.497 470.476 791.207 462.964 796.813ZM469.682 795.568C481.106 787.156 493.35 778.533 506.325 769.846C540.654 762.592 575.668 758.153 610.835 757.434C596.817 763.616 583.106 770.09 569.748 776.774C563.094 780.104 556.527 783.486 550.054 786.91C523.067 787.782 496.197 790.803 469.682 795.568ZM550.843 789.886C541.647 794.759 532.64 799.715 523.841 804.727C534.389 799.583 545.147 794.578 556.092 789.751C554.342 789.787 552.592 789.832 550.843 789.886ZM563.191 786.657C561.073 786.67 558.956 786.696 556.839 786.736C561.542 784.285 566.294 781.858 571.091 779.457C586.474 771.76 602.322 764.344 618.561 757.336C624.216 757.309 629.873 757.379 635.531 757.551C637.267 757.604 639 757.652 640.728 757.697C614.129 766.081 588.194 775.888 563.191 786.657ZM563.818 789.653C547.579 796.661 531.73 804.077 516.347 811.775C504.878 817.514 493.668 823.409 482.751 829.407C477.309 832.848 471.974 836.293 466.751 839.731C507.001 831.718 548.154 827.617 589.37 828.869C750.373 833.762 876.916 803.899 967.946 757.985C984.818 746.338 999.902 734.093 1013.18 721.459C989.231 725.054 964.162 727.771 937.985 729.501C848.52 769.45 729.125 794.376 580.788 789.868C575.13 789.697 569.472 789.626 563.818 789.653ZM929.278 730.037C841.181 767.846 724.798 791.243 580.879 786.87C577.524 786.768 574.169 786.701 570.815 786.67C596.449 775.87 623.018 766.118 650.235 757.904C743.232 759.533 824.54 749.481 893.904 731.44C905.907 731.17 917.699 730.7 929.278 730.037ZM945.779 725.948C970.509 724.108 994.221 721.38 1016.91 717.858C1025.24 709.676 1032.83 701.341 1039.66 692.909C1026.7 694.423 1013.44 695.687 999.877 696.684C983.335 707.056 965.299 716.863 945.779 725.948ZM993.433 697.136C976.273 707.597 957.541 717.457 937.245 726.544C927.11 727.208 916.808 727.724 906.338 728.086C937.691 719.318 966.496 708.897 992.728 697.183C992.963 697.168 993.198 697.152 993.433 697.136ZM984.021 697.72C954.183 699.426 922.932 699.86 890.279 698.868C798.729 696.086 707.38 719.88 625.559 754.352C628.912 754.384 632.267 754.45 635.622 754.552C640.384 754.697 645.117 754.811 649.819 754.896C709.599 736.894 772.539 726.27 835.627 728.187C855.44 728.789 874.73 728.865 893.497 728.449C926.401 719.873 956.583 709.495 984.021 697.72ZM880.722 731.655C865.971 731.804 850.909 731.653 835.536 731.186C776.086 729.379 716.722 738.779 659.995 755.032C743.274 755.77 816.901 747.055 880.722 731.655ZM1005.24 693.267C1017.87 692.265 1030.23 691.03 1042.32 689.575C1047.96 682.389 1053.06 675.137 1057.62 667.856C1059.71 664.514 1061.99 661.233 1064.46 658.013C1049.53 667.935 1033.29 677.39 1015.75 686.248C1012.32 688.613 1008.82 690.954 1005.24 693.267ZM1043.92 692.401C1037.32 700.731 1030 708.966 1021.97 717.056C1027.53 716.159 1033.02 715.215 1038.45 714.223C1049.1 706.085 1058.93 697.702 1067.93 689.141C1060.04 690.324 1052.04 691.412 1043.92 692.401ZM1071.65 685.541C1063.41 686.82 1055.03 687.995 1046.52 689.06C1051.5 682.567 1056.05 676.021 1060.16 669.446C1063.95 663.39 1068.4 657.526 1073.47 651.858C1077.75 648.85 1081.92 645.803 1085.96 642.721C1094.46 641.163 1102.79 639.492 1110.98 637.713C1100.58 653.951 1087.46 670.021 1071.65 685.541ZM1073.07 688.352C1064.46 696.761 1055.07 705.002 1044.9 713.018C1128.28 697.087 1196.69 670.147 1249.84 637.44C1200.19 659.888 1141.21 677.695 1073.07 688.352ZM1076.72 684.739C1092.06 669.28 1104.8 653.29 1114.9 637.129C1114.97 637.021 1115.04 636.913 1115.11 636.805C1198.26 618.252 1265.6 588.517 1316.75 553.248C1319.18 552.02 1321.59 550.78 1323.97 549.529C1333.04 548.078 1342.24 546.73 1351.56 545.485C1332.02 573.332 1304.44 600.483 1268.95 624.985C1216.56 651.406 1152.42 672.512 1076.72 684.739ZM1355.58 544.956C1338.92 569.253 1316.28 593.016 1287.73 615.006C1327 593.05 1358.84 568.024 1383.17 541.708C1373.87 542.693 1364.67 543.776 1355.58 544.956ZM1386.21 538.375C1376.63 539.362 1367.16 540.452 1357.81 541.644C1358.96 539.914 1360.08 538.181 1361.16 536.446C1364.95 530.39 1369.4 524.526 1374.47 518.858C1375.06 518.443 1375.65 518.027 1376.23 517.611C1386.1 516.007 1396.13 514.526 1406.31 513.167C1400.35 521.653 1393.65 530.074 1386.21 538.375ZM1390.61 537.928C1469.62 530.068 1555.66 529.147 1641.58 535.364C1723.49 541.293 1805.02 512.244 1878.3 468.441C1820.15 495.085 1758.29 510.54 1696.1 506.039C1597.33 498.891 1498.42 501.199 1410.33 512.638C1404.49 521.151 1397.92 529.599 1390.61 537.928ZM1412.56 509.326C1500.23 498.149 1598.36 495.957 1696.32 503.047C1767.1 508.169 1837.59 487.177 1902.72 453.117C1912.79 446.5 1922.68 439.635 1932.37 432.577C1944.13 424.004 1955.59 415.15 1966.71 406.118C1958.6 406.192 1950.48 405.944 1942.36 405.357C1933 404.68 1923.65 404.087 1914.3 403.579C1843.75 443.714 1765.95 469.709 1687.61 464.039C1607.34 458.23 1526.98 458.666 1452.41 465.173C1437 477.105 1424.68 490.099 1415.9 504.129C1414.82 505.863 1413.7 507.596 1412.56 509.326ZM1460.28 461.5C1532.73 455.638 1610.33 455.439 1687.83 461.047C1763.89 466.552 1839.61 441.902 1908.71 403.286C1907.1 403.204 1905.49 403.125 1903.88 403.049C1851.84 424.128 1797.23 435.693 1742.36 431.722C1680.67 427.258 1618.94 426.482 1559.82 429.314C1522.87 438.046 1489.31 448.789 1460.28 461.5ZM1576.2 425.622C1630.38 423.655 1686.51 424.672 1742.57 428.73C1794.74 432.505 1846.76 422.093 1896.58 402.718C1783.19 397.849 1671.87 405.43 1579.27 424.968C1578.24 425.185 1577.22 425.402 1576.2 425.622ZM1903.36 400.021C1787.48 394.551 1673.35 402.052 1578.65 422.033C1572.14 423.406 1565.72 424.839 1559.4 426.33C1544.43 427.051 1529.62 428.002 1515.03 429.183C1549.07 414.275 1589.35 402.075 1634.01 392.651C1729.2 372.567 1844.17 365.117 1960.83 370.838C1956.91 373.528 1952.96 376.184 1948.97 378.8C1934.03 386.614 1918.81 393.74 1903.36 400.021ZM1910.37 400.367C1911.44 400.422 1912.51 400.479 1913.58 400.536C1917.26 398.437 1920.91 396.299 1924.55 394.124C1919.85 396.28 1915.12 398.362 1910.37 400.367ZM1919.06 400.841C1926.9 401.289 1934.74 401.797 1942.58 402.364C1951.88 403.037 1961.17 403.26 1970.45 403.061C1982.26 393.351 1993.68 383.451 2004.65 373.488C2002.13 373.37 1999.62 373.221 1997.1 373.039C1987.75 372.362 1978.39 371.77 1969.04 371.262C1962.91 374.748 1956.73 378.127 1950.5 381.388C1940.21 388.148 1929.72 394.653 1919.06 400.841ZM1973.8 368.523C1981.64 368.972 1989.48 369.48 1997.32 370.047C2000.81 370.3 2004.3 370.489 2007.79 370.616C2022.85 356.815 2037.03 342.917 2050.22 329.257C2043.95 330.047 2037.66 330.661 2031.37 331.089C2012.87 344.4 1993.63 357.01 1973.8 368.523ZM2036 327.73C2041.86 327.242 2047.71 326.594 2053.55 325.792C2062.16 316.785 2070.32 307.895 2078.01 299.218C2076.19 299.295 2074.37 299.356 2072.55 299.401C2060.74 309.076 2048.55 318.56 2036 327.73ZM2067.7 299.484C2056.59 308.515 2045.13 317.369 2033.36 325.943C2032.35 326.681 2031.33 327.418 2030.31 328.152C2027.41 328.342 2024.5 328.491 2021.59 328.6C2033.19 318.98 2044.4 309.186 2055.17 299.339C2059.35 299.474 2063.53 299.521 2067.7 299.484ZM2050.9 299.17C2048.38 299.053 2045.87 298.904 2043.36 298.722C1914.44 289.392 1785.31 296.17 1680.26 318.333C1627.74 329.415 1581.29 344.334 1543.91 362.981C1531.92 368.964 1520.87 375.326 1510.86 382.06C1543.94 368.125 1582.49 356.665 1624.9 347.716C1730.27 325.483 1859.7 318.702 1988.83 328.047C1998.13 328.72 2007.42 328.942 2016.7 328.743C2028.52 319.033 2039.93 309.133 2050.9 299.17ZM2012.96 331.801C2004.85 331.875 1996.74 331.627 1988.61 331.039C1859.7 321.71 1730.56 328.488 1625.52 350.651C1577.54 360.775 1534.62 374.101 1499.06 390.547C1483.46 402.564 1471.01 415.661 1462.15 429.812C1461.07 431.546 1459.96 433.279 1458.81 435.009C1474.25 433.041 1490.01 431.351 1506.04 429.942C1541.91 413.32 1585.15 399.894 1633.39 389.715C1729.94 369.344 1846.68 361.946 1964.89 368.038C1969.51 364.825 1974.08 361.563 1978.62 358.26C1990.38 349.686 2001.84 340.832 2012.96 331.801ZM1498.24 433.665C1497.59 433.98 1496.96 434.297 1496.32 434.614C1479.41 443.052 1464.29 452.268 1451.27 462.261C1446.45 462.686 1441.64 463.136 1436.87 463.611C1444.17 455.282 1450.74 446.834 1456.58 438.321C1470.22 436.55 1484.12 434.997 1498.24 433.665ZM1506.83 432.884C1503.71 434.332 1500.66 435.803 1497.66 437.298C1485.67 443.282 1474.62 449.643 1464.61 456.377C1488.39 446.358 1515 437.618 1543.85 430.171C1531.37 430.912 1519.02 431.817 1506.83 432.884ZM1454.86 435.52C1456.5 433.091 1458.09 430.658 1459.61 428.221C1466.75 416.801 1476.16 406.095 1487.56 396.105C1462.1 408.97 1440.98 423.563 1425.12 439.831C1434.88 438.275 1444.8 436.838 1454.86 435.52ZM1421.74 443.416C1431.84 441.765 1442.12 440.243 1452.56 438.85C1446.6 447.336 1439.9 455.757 1432.46 464.058C1422.88 465.045 1413.42 466.135 1404.07 467.326C1405.21 465.596 1406.33 463.864 1407.41 462.129C1411.45 455.671 1416.24 449.433 1421.74 443.416ZM1417.02 444.197C1404.14 446.365 1391.54 448.744 1379.26 451.333C1326.74 462.415 1280.29 477.334 1242.91 495.981C1230.92 501.964 1219.87 508.326 1209.86 515.06C1242.94 501.125 1281.49 489.665 1323.9 480.716C1348.13 475.603 1373.64 471.308 1400.11 467.837C1401.76 465.409 1403.34 462.975 1404.87 460.539C1408.38 454.918 1412.45 449.471 1417.02 444.197ZM1397.82 471.167C1372.37 474.564 1347.85 478.728 1324.52 483.651C1276.54 493.775 1233.62 507.101 1198.06 523.547C1182.46 535.564 1170.01 548.661 1161.15 562.812C1151.57 578.145 1139.61 593.324 1125.31 608.042C1130.22 605.263 1135.31 602.559 1140.58 599.932C1143.74 598.355 1146.96 596.805 1150.25 595.282C1163.27 585.281 1178.39 576.058 1195.32 567.614C1232.99 548.819 1279.71 533.831 1332.39 522.715C1340.23 521.061 1348.2 519.493 1356.3 518.01C1372.76 502.87 1386.61 487.133 1397.82 471.167ZM1352.05 521.851C1345.62 523.063 1339.28 524.329 1333.01 525.651C1280.49 536.732 1234.04 551.651 1196.66 570.298C1184.67 576.282 1173.62 582.643 1163.61 589.377C1196.69 575.442 1235.23 563.982 1277.65 555.033C1291.47 552.116 1305.71 549.465 1320.31 547.082C1331.75 538.925 1342.33 530.492 1352.05 521.851ZM1331.95 545.25C1343.77 538.767 1354.94 532.006 1365.46 525.013C1362.99 528.233 1360.71 531.514 1358.62 534.856C1357.09 537.293 1355.51 539.726 1353.86 542.155C1346.48 543.122 1339.17 544.154 1331.95 545.25ZM1314.29 551.127C1302 553.215 1289.99 555.496 1278.27 557.968C1230.29 568.092 1187.37 581.418 1151.81 597.864C1147.77 600.98 1143.93 604.168 1140.32 607.429C1208.09 594.979 1266.13 575.296 1314.29 551.127ZM1134.84 608.415C1136.61 606.732 1138.43 605.067 1140.31 603.422C1136.43 605.385 1132.64 607.388 1128.96 609.431C1130.93 609.099 1132.89 608.76 1134.84 608.415ZM1121.55 613.684C1124.75 613.175 1127.92 612.651 1131.08 612.111C1124.16 619.131 1118.19 626.477 1113.24 634.149C1106 635.753 1098.64 637.271 1091.15 638.701C1100.23 631.548 1108.68 624.216 1116.52 616.745C1118.17 615.715 1119.85 614.695 1121.55 613.684ZM1117.9 611.224C1134.42 595.012 1147.99 578.199 1158.61 561.221C1165.75 549.801 1175.16 539.095 1186.56 529.105C1149.97 547.596 1122.34 569.655 1106.41 595.129C1102.3 601.704 1097.75 608.249 1092.77 614.743C1101.29 613.678 1109.66 612.503 1117.9 611.224ZM1090.17 618.084C1098.18 617.109 1106.08 616.037 1113.85 614.873C1101.07 622.913 1089.76 631.534 1080.1 640.733C1076.17 641.426 1072.21 642.095 1068.23 642.739C1076.25 634.649 1083.57 626.414 1090.17 618.084ZM1085.92 618.592C1039.93 623.966 990.118 626.179 936.531 624.551C824.069 621.133 711.91 657.819 617.342 705.14C601.036 713.3 585.257 721.773 570.093 730.41C663.032 685.089 772.234 650.538 881.879 653.87C948.173 655.884 1008.63 652.006 1063.16 643.541C1071.49 635.359 1079.08 627.024 1085.92 618.592ZM1064.58 646.353C1055.01 655.698 1044.47 664.837 1032.98 673.689C1046.73 666.005 1059.56 657.945 1071.48 649.585C1073.04 647.847 1074.66 646.128 1076.34 644.428C1072.45 645.093 1068.53 645.735 1064.58 646.353ZM1117.47 633.2C1122.69 625.55 1128.98 618.218 1136.26 611.207C1197.28 600.361 1250.6 583.69 1296.09 563.123C1248.65 592.321 1189.04 616.923 1117.47 633.2ZM1357.7 520.805C1361.55 520.102 1365.44 519.418 1369.36 518.754C1358.32 526.341 1346.53 533.672 1333.98 540.689C1342.4 534.205 1350.31 527.566 1357.7 520.805ZM1373.98 514.94C1369.88 515.614 1365.8 516.31 1361.76 517.027C1377.63 502.017 1391 486.441 1401.84 470.638C1410.92 469.459 1420.12 468.376 1429.42 467.391C1425.07 472.096 1420.48 476.759 1415.65 481.372C1399.24 491.615 1385.22 502.805 1373.98 514.94ZM1381.63 513.712C1390.5 512.323 1399.49 511.031 1408.6 509.837C1410.25 507.408 1411.84 504.975 1413.36 502.538C1420.5 491.118 1429.91 480.412 1441.31 470.422C1432.89 474.675 1424.95 479.117 1417.52 483.745C1406.73 494.032 1394.76 504.058 1381.63 513.712ZM1433.92 466.923C1431.46 469.644 1428.92 472.35 1426.31 475.042C1431.22 472.263 1436.31 469.559 1441.58 466.932C1442.21 466.614 1442.85 466.298 1443.49 465.983C1440.29 466.285 1437.1 466.599 1433.92 466.923ZM2017.8 331.719C2020.45 331.653 2023.1 331.554 2025.75 331.421C2009.9 342.681 1993.52 353.399 1976.73 363.333C1977.95 362.454 1979.17 361.57 1980.38 360.685C1993.24 351.318 2005.73 341.618 2017.8 331.719ZM2076.33 296.282C2077.81 296.227 2079.29 296.161 2080.77 296.085C2084.72 291.59 2088.54 287.156 2092.21 282.797C2087.01 287.322 2081.71 291.821 2076.33 296.282ZM2082.19 299.013C2074.7 307.525 2066.74 316.25 2058.35 325.098C2065.93 323.946 2073.49 322.539 2081.03 320.892C2089.32 312.871 2097.31 304.865 2104.96 296.939C2097.39 297.893 2089.8 298.59 2082.19 299.013ZM2109.74 296.303C2102.35 304.012 2094.65 311.804 2086.64 319.619C2134.78 308.317 2181.64 287.369 2225.55 261.124C2188.18 278.248 2149.27 290.75 2109.74 296.303ZM2076.93 324.827C2069.64 326.321 2062.33 327.59 2054.99 328.621C2041.69 342.51 2027.34 356.668 2012.09 370.741C2016.46 370.837 2020.83 370.837 2025.19 370.743C2043.45 355.735 2060.76 340.274 2076.93 324.827ZM2030.08 370.6C2048.62 355.226 2066.16 339.409 2082.5 323.641C2141.79 310.534 2199.16 282.763 2251.5 248.388C2280.99 232.955 2309.36 214.876 2336.13 195.367C2356.1 180.814 2375.19 165.458 2393.21 149.797C2353.58 196.758 2298.09 252.409 2233.37 299.577C2223.68 306.635 2213.79 313.5 2203.72 320.117C2148.65 348.917 2089.75 368.373 2030.08 370.6ZM2021.45 373.801C2017.27 373.839 2013.1 373.791 2008.91 373.656C1998.15 383.503 1986.94 393.297 1975.33 402.917C1978.24 402.809 1981.15 402.659 1984.06 402.469C1985.08 401.735 1986.09 400.998 1987.11 400.26C1998.87 391.686 2010.33 382.832 2021.45 373.801ZM1989.75 402.047C2002.29 392.878 2014.49 383.394 2026.29 373.719C2078.58 372.423 2130.26 357.911 2179.3 335.441C2120.11 370.819 2055.55 396.572 1989.75 402.047ZM1979.49 405.738C1976.85 405.871 1974.2 405.971 1971.55 406.036C1959.48 415.935 1946.99 425.635 1934.13 435.002C1932.92 435.888 1931.7 436.771 1930.48 437.651C1947.27 427.716 1963.64 416.998 1979.49 405.738ZM1033.13 718.219C1028.24 719.073 1023.31 719.891 1018.33 720.67C1008.76 730.015 998.223 739.154 986.732 748.006C1003.56 738.594 1019.03 728.619 1033.13 718.219ZM445.439 847.434C415.311 854.531 385.776 863.722 357.198 874.385C354.47 876.821 351.861 879.197 349.376 881.506L347.334 879.308C348.05 878.643 348.775 877.972 349.511 877.297C321.998 887.877 295.413 899.786 270.091 912.457C253.785 920.617 238.005 929.091 222.841 937.727C278.565 910.554 340.136 887.252 404.143 873.666C417.202 864.934 430.996 856.141 445.439 847.434ZM412.007 872.049C413.574 871.737 415.142 871.431 416.712 871.131C424.224 865.524 432.108 859.815 440.34 854.045C430.573 860.033 421.12 866.05 412.007 872.049ZM423.43 869.885C434.855 861.473 447.098 852.85 460.073 844.164C502.432 835.213 545.833 830.548 589.279 831.868C738.924 836.415 859.115 811.008 948.836 770.44C856.421 827.318 717.835 866.754 534.627 861.187C497.302 860.053 460.028 863.309 423.43 869.885Z" fill="white"/>
</svg>
