<svg width="278" height="226" viewBox="0 0 278 226" fill="none" xmlns="http://www.w3.org/2000/svg">
<path fill-rule="evenodd" clip-rule="evenodd" d="M139 226C140.785 226 142.233 224.555 142.233 222.771L142.233 3.22859C142.233 1.44542 140.785 1.19957e-05 139 1.21518e-05C137.215 1.23078e-05 135.767 1.44542 135.767 3.22859L135.767 222.771C135.767 224.555 137.215 226 139 226ZM161.628 193.714C163.413 193.714 164.86 192.269 164.86 190.486L164.86 3.22859C164.86 1.44541 163.413 1.00175e-05 161.628 1.01736e-05C159.843 1.03296e-05 158.395 1.44541 158.395 3.22859L158.395 190.486C158.395 192.269 159.843 193.714 161.628 193.714ZM184.256 161.429C186.041 161.429 187.488 159.983 187.488 158.2L187.488 3.22858C187.488 1.44541 186.041 8.03931e-06 184.256 8.19538e-06C182.471 8.35144e-06 181.023 1.44541 181.023 3.22859L181.023 158.2C181.023 159.983 182.471 161.429 184.256 161.429ZM206.884 129.143C208.669 129.143 210.116 127.697 210.116 125.914L210.116 3.22858C210.116 1.44541 208.669 6.06112e-06 206.884 6.21718e-06C205.099 6.37325e-06 203.651 1.44541 203.651 3.22858L203.651 125.914C203.651 127.697 205.099 129.143 206.884 129.143ZM229.512 96.8572C231.297 96.8572 232.744 95.4117 232.744 93.6286L232.744 3.22858C232.744 1.44541 231.297 4.08292e-06 229.512 4.23899e-06C227.726 4.39505e-06 226.279 1.44541 226.279 3.22858L226.279 93.6286C226.279 95.4117 227.726 96.8572 229.512 96.8572ZM252.14 64.5714C253.925 64.5714 255.372 63.126 255.372 61.3429L255.372 3.22858C255.372 1.44541 253.925 2.10473e-06 252.14 2.26079e-06C250.354 2.41686e-06 248.907 1.44541 248.907 3.22858L248.907 61.3429C248.907 63.126 250.354 64.5714 252.14 64.5714ZM278 29.0571C278 30.8403 276.553 32.2857 274.767 32.2857C272.982 32.2857 271.535 30.8403 271.535 29.0571L271.535 3.22858C271.535 1.4454 272.982 4.38664e-07 274.767 2.82599e-07C276.553 1.26535e-07 278 1.4454 278 3.22858L278 29.0571ZM-1.72173e-05 29.0572C-1.70614e-05 30.8403 1.44737 32.2857 3.23253 32.2857C5.01771 32.2857 6.4651 30.8403 6.4651 29.0572L6.4651 3.2286C6.4651 1.44543 5.01771 2.38649e-05 3.23252 2.40209e-05C1.44737 2.4177e-05 -1.96312e-05 1.44543 -1.94753e-05 3.2286L-1.72173e-05 29.0572ZM22.6279 61.3429C22.6279 63.126 24.0753 64.5714 25.8604 64.5714C27.6456 64.5714 29.093 63.126 29.093 61.3429L29.093 3.2286C29.093 1.44543 27.6456 2.18867e-05 25.8604 2.20427e-05C24.0753 2.21988e-05 22.6279 1.44543 22.6279 3.2286L22.6279 61.3429ZM45.2558 93.6286C45.2558 95.4117 46.7032 96.8572 48.4883 96.8572C50.2735 96.8572 51.7209 95.4117 51.7209 93.6286L51.7209 3.2286C51.7209 1.44542 50.2735 1.99085e-05 48.4883 2.00645e-05C46.7032 2.02206e-05 45.2558 1.44542 45.2558 3.2286L45.2558 93.6286ZM67.8837 125.914C67.8837 127.697 69.3311 129.143 71.1163 129.143C72.9014 129.143 74.3488 127.697 74.3488 125.914L74.3488 3.22859C74.3488 1.44542 72.9014 1.79303e-05 71.1163 1.80863e-05C69.3311 1.82424e-05 67.8837 1.44542 67.8837 3.2286L67.8837 125.914ZM90.5116 158.2C90.5116 159.983 91.959 161.429 93.7442 161.429C95.5293 161.429 96.9767 159.983 96.9767 158.2L96.9767 3.22859C96.9767 1.44542 95.5293 1.59521e-05 93.7442 1.61082e-05C91.959 1.62642e-05 90.5116 1.44542 90.5116 3.22859L90.5116 158.2ZM113.14 190.486C113.14 192.269 114.587 193.714 116.372 193.714C118.157 193.714 119.605 192.269 119.605 190.486L119.605 3.22859C119.605 1.44542 118.157 1.39739e-05 116.372 1.413e-05C114.587 1.4286e-05 113.14 1.44542 113.14 3.22859L113.14 190.486Z" fill="#A36361"/>
</svg>
