<svg width="58" height="152" viewBox="0 0 58 152" fill="none" xmlns="http://www.w3.org/2000/svg">
<path d="M38.1818 9.73295L29.5568 14.0455L38.1818 18.5114L38.1818 26.9148L25.0909 19.6023L12 27.1875L12 18.8523L20.6932 14.0455L12 9.35795L12 0.903407L25.0909 8.50568L38.1818 1.27841L38.1818 9.73295Z" fill="#EECC8C"/>
<path d="M38.1818 91.733L29.5568 96.0455L38.1818 100.511L38.1818 108.915L25.0909 101.602L12 109.187L12 100.852L20.6932 96.0455L12 91.358L12 82.9034L25.0909 90.5057L38.1818 83.2784L38.1818 91.733Z" fill="#EECC8C"/>
<path d="M38.1818 50.733L29.5568 55.0455L38.1818 59.5114L38.1818 67.9148L25.0909 60.6023L12 68.1875L12 59.8523L20.6932 55.0455L12 50.358L12 41.9034L25.0909 49.5057L38.1818 42.2784L38.1818 50.733Z" fill="#EECC8C"/>
<path d="M38.1818 132.733L29.5568 137.045L38.1818 141.511L38.1818 149.915L25.0909 142.602L12 150.187L12 141.852L20.6932 137.045L12 132.358L12 123.903L25.0909 131.506L38.1818 124.278L38.1818 132.733Z" fill="#EECC8C"/>
</svg>
