<svg width="64" height="49" viewBox="0 0 64 49" fill="none" xmlns="http://www.w3.org/2000/svg">
<g id="Group 15">
<path id="Rectangle 3" d="M0 -15H64V49H0V-15Z" fill="white"/>
<path id="Ellipse 3" d="M8 25C3.58172 25 -5.4282e-07 21.4183 -3.49691e-07 17C-1.56562e-07 12.5817 3.58172 9 8 9C12.4183 9 16 12.5817 16 17C16 21.4183 12.4183 25 8 25Z" fill="#E8B298"/>
<path id="Ellipse 2" d="M32 25C27.5817 25 24 21.4183 24 17C24 12.5817 27.5817 9 32 9C36.4183 9 40 12.5817 40 17C40 21.4183 36.4183 25 32 25Z" fill="#E8B298"/>
<path id="Ellipse 4" d="M56 25C51.5817 25 48 21.4183 48 17C48 12.5817 51.5817 9 56 9C60.4183 9 64 12.5817 64 17C64 21.4183 60.4183 25 56 25Z" fill="#E8B298"/>
</g>
</svg>
