<svg width="128" height="128" viewBox="0 0 128 128" fill="none" xmlns="http://www.w3.org/2000/svg">
<g id="Group 40">
<path id="Rectangle 3" d="M128 128L0 128L1.11901e-05 -1.11901e-05L128 0L128 128Z" fill="white"/>
<path id="Intersect" d="M1.11901e-05 -1.11901e-05L0 128C70.6925 128 128 70.6925 128 0L1.11901e-05 -1.11901e-05Z" fill="#BDD1C5"/>
<path id="Intersect_2" d="M1.94758e-09 87.9777L7.6932e-06 -7.86805e-06L90 0C90 48.6011 50.6011 88 2 88C1.33157 88 0.664871 87.9925 1.94758e-09 87.9777Z" fill="white"/>
<path id="Intersect_3" d="M1.56814e-08 47.8206L4.19629e-06 -4.19629e-06L47.8206 -1.56814e-08C47.9394 1.31745 48 2.65164 48 4C48 28.3005 28.3005 48 4 48C2.65164 48 1.31745 47.9393 1.56814e-08 47.8206Z" fill="#BDD1C5"/>
</g>
</svg>
