<svg width="128" height="121" viewBox="0 0 128 121" fill="none" xmlns="http://www.w3.org/2000/svg">
<g id="Group 40">
<path id="Intersect" d="M-5.59506e-06 128L128 128C128 57.3075 70.6925 -2.50499e-06 0 -5.59506e-06L-5.59506e-06 128Z" fill="#BDD1C5"/>
<path id="Intersect_2" d="M87.9777 128L-3.93402e-06 128L0 38C48.6011 38 88 77.3989 88 126C88 126.668 87.9925 127.335 87.9777 128Z" fill="white"/>
<path id="Intersect_3" d="M47.8206 128L-2.09815e-06 128L-7.84072e-09 80.1794C1.31745 80.0607 2.65164 80 4 80C28.3005 80 48 99.6995 48 124C48 125.348 47.9393 126.683 47.8206 128Z" fill="#BDD1C5"/>
</g>
</svg>
