<?xml version="1.0" encoding="UTF-8" standalone="no"?>
<!-- Created with Inkscape (http://www.inkscape.org/) -->

<svg
   width="512"
   height="512"
   viewBox="0 0 512 512"
   version="1.1"
   id="svg5"
   xml:space="preserve"
   inkscape:version="1.2.2 (b0a8486541, 2022-12-01)"
   sodipodi:docname="verif.svg"
   xmlns:inkscape="http://www.inkscape.org/namespaces/inkscape"
   xmlns:sodipodi="http://sodipodi.sourceforge.net/DTD/sodipodi-0.dtd"
   xmlns="http://www.w3.org/2000/svg"
   xmlns:svg="http://www.w3.org/2000/svg"><sodipodi:namedview
     id="namedview7"
     pagecolor="#ffffff"
     bordercolor="#000000"
     borderopacity="0.25"
     inkscape:showpageshadow="2"
     inkscape:pageopacity="0.0"
     inkscape:pagecheckerboard="0"
     inkscape:deskcolor="#d1d1d1"
     inkscape:document-units="px"
     showgrid="false"
     inkscape:zoom="0.77050781"
     inkscape:cx="256.32446"
     inkscape:cy="256.32446"
     inkscape:window-width="1920"
     inkscape:window-height="1004"
     inkscape:window-x="0"
     inkscape:window-y="30"
     inkscape:window-maximized="1"
     inkscape:current-layer="g33" /><defs
     id="defs2" /><g
     inkscape:label="Layer 1"
     inkscape:groupmode="layer"
     id="layer1"><g
       id="g33"
       transform="translate(-797.72059,15.028212)"><path
         fill="#4ce27f"
         d="m 915.53522,95.32517 q 0.21505,-0.23477 0.32258,-0.81611 4.88181,-26.003703 9.77437,-51.962697 0.13978,-0.749042 0.86023,-0.6037 l 51.89341,10.58706 a 1.7124039,1.65408 86.154443 0 0 1.68818,-0.715495 L 1009.5369,6.447471 a 1.0028624,1.0479006 6.5577465 0 1 1.398,-0.279489 l 42.3125,29.715345 a 1.1935699,1.2409339 0 0 0 1.3334,0 l 42.4739,-29.704166 a 0.93550073,0.97262393 0 0 1 1.2903,0.26831 l 29.5059,45.534461 a 1.5269093,1.5875011 0 0 0 1.5699,0.670773 l 52.1408,-10.587071 a 0.55914987,0.58133843 0 0 1 0.656,0.458367 l 9.7313,52.298089 a 1.621039,1.5376628 89.894835 0 0 1.2259,1.27448 l 50.4739,10.26287 a 0.43207009,0.42290222 33.421615 0 1 0.3334,0.50307 l -10.2583,54.16509 a 1.7347593,1.6755895 86.209743 0 0 0.7096,1.77755 l 44.0011,30.88919 a 0.61291429,0.63723636 0 0 1 0.1612,0.88319 l -28.8286,44.31588 a 1.096794,1.1403176 0 0 0 0,1.29683 l 28.6996,44.30469 a 0.80216549,0.76608587 81.819382 0 1 -0.2044,1.11796 l -43.7643,30.59853 a 1.8584316,1.9247687 3.3670011 0 0 -0.7849,1.96761 l 10.1183,53.86323 a 0.65931849,0.62392921 86.726691 0 1 -0.4946,0.7714 l -50.4847,10.17343 a 1.3441102,1.3974481 0 0 0 -1.0645,1.10677 l -9.8173,52.42108 a 0.55914987,0.58133843 0 0 1 -0.6561,0.45835 l -52.1944,-10.63178 a 1.4552949,1.4067413 85.406597 0 0 -1.4194,0.60371 q -14.4411,22.02377 -28.1404,43.34323 -0.8494,1.3192 -1.8279,2.38126 a 0.72044311,0.74903221 0 0 1 -0.9247,0.10062 l -42.3987,-29.73771 a 1.2544029,1.202029 77.627328 0 0 -1.344,0 l -42.56,29.71534 a 0.90271129,0.86293227 82.598493 0 1 -1.1936,-0.24594 l -29.57044,-45.67979 q -0.50537,-0.77138 -1.37635,-0.59252 l -52.18375,10.62061 a 0.63442005,0.65959552 0 0 1 -0.74194,-0.52544 l -9.78513,-52.38753 a 1.4301333,1.4868848 0 0 0 -1.12905,-1.17387 l -50.21595,-10.1287 a 0.77420752,0.80493013 0 0 1 -0.61292,-0.93908 l 10.12921,-53.59494 q 0.25808,-1.40863 -0.88173,-2.21354 L 829.4584,285.40048 q -0.77422,-0.5478 -0.24732,-1.34155 l 28.59191,-43.98049 a 1.3142511,1.2628161 83.847563 0 0 0,-1.46452 l -28.61342,-44.22643 a 0.74194888,0.77139138 0 0 1 0.2043,-1.07326 l 43.86101,-30.7103 q 0.89249,-0.62607 0.68818,-1.73285 l -10.18298,-54.25453 a 0.37635088,0.39128548 0 0 1 0.31184,-0.45835 q 25.33379,-5.05317 50.29122,-10.15107 a 2.2254019,2.1819132 65.626041 0 0 1.17208,-0.68196 z m 121.59368,179.05225 a 0.77420752,0.80493013 0 0 1 -1.0969,0 l -48.77507,-50.65471 a 0.77420752,0.80493013 0 0 0 -1.09676,0 l -24.14025,24.98638 a 0.77420752,0.80493013 0 0 0 0,1.1403 l 73.96918,76.87084 a 0.77420752,0.80493013 0 0 0 1.0968,0 l 129.7012,-134.78108 a 0.77420752,0.80493013 0 0 0 0,-1.14031 l -24.0326,-24.98639 a 0.77420752,0.80493013 0 0 0 -1.0969,0 z"
         id="path17"
         style="stroke-width:1.09642" /></g></g></svg>
